# Blender v2.79 (sub 0) OBJ File: 'ModeloParedes2.blend'
# www.blender.org
mtllib P1Janela.mtl
o Cube
v -20.567881 0.372509 -26.860933
v -20.567881 4.845593 -26.861137
v -24.287075 0.372509 -37.168488
v -24.287069 25.213478 -37.168495
v -24.287071 18.878702 -37.168495
v -24.287075 4.849500 -37.168488
v -24.287073 16.193174 -37.168491
v -20.567881 0.372509 -37.168488
v -20.567877 25.213478 -37.168484
v -20.567877 18.878702 -37.168484
v -20.567881 4.845593 -37.168484
v -20.567879 16.193174 -37.168484
v -20.567881 4.614724 -26.861137
v -24.287075 0.372509 18.644064
v -20.567886 0.372509 18.644070
v -24.287081 25.213478 18.644056
v -20.567886 25.213478 18.644064
v -24.287086 0.372511 39.655170
v -20.567898 0.372511 39.655178
v -24.287092 25.213478 39.655167
v -20.567898 25.213478 39.655178
v -24.287079 18.878702 18.644056
v -20.567886 18.878702 18.644064
v -24.287090 18.878702 39.655167
v -20.567898 18.878702 39.655178
v -24.287075 4.849500 18.644060
v -24.287077 16.193174 18.644056
v -20.567886 4.845593 18.644066
v -20.567886 16.193174 18.644066
v -24.287088 6.541241 39.655170
v -24.287088 16.193174 39.655167
v -20.567898 6.541241 39.655178
v -20.567898 16.193174 39.655178
v -24.287075 0.372509 6.631670
v -24.287075 0.372509 -4.093927
v -20.567881 0.372509 -4.093924
v -20.567883 0.372509 6.631676
v -24.287075 25.213478 6.631664
v -24.287071 25.213478 -4.093933
v -20.567879 25.213478 -4.093921
v -20.567883 25.213478 6.631676
v -20.567879 18.878702 -4.093921
v -20.567883 18.878702 6.631676
v -24.287075 18.878702 6.631666
v -24.287073 18.878702 -4.093933
v -24.287075 4.849500 6.631669
v -24.287075 4.849500 -4.093927
v -24.287075 16.193174 6.631667
v -24.287075 16.193174 -4.093930
v -20.567881 4.845593 -4.093921
v -20.567883 4.845593 6.631676
v -20.567881 16.193174 -4.093921
v -20.567883 16.193174 6.631676
v -24.287075 0.372509 1.268872
v -20.567883 0.372509 1.268877
v -24.287075 25.213478 1.268866
v -20.567881 25.213478 1.268878
v -20.567881 23.193001 1.268878
v -24.287075 23.193001 1.268866
v -24.287075 4.849500 1.268871
v -24.287075 20.507473 1.268869
v -20.567883 4.845593 1.268878
v -20.567881 20.507473 1.268878
v -24.287075 0.372509 -37.168488
v -24.287069 25.213478 -37.168495
v -24.287071 18.878702 -37.168495
v -24.287075 4.849500 -37.168488
v -24.287073 16.193174 -37.168491
v -20.567881 0.372509 -37.168488
v -20.567877 25.213478 -37.168484
v -20.567877 18.878702 -37.168484
v -20.567881 4.845593 -37.168484
v -20.567879 16.193174 -37.168484
v -24.287075 4.618430 18.644060
v -20.567886 4.614724 18.644066
v -24.287088 6.222855 39.655170
v -20.567898 6.222855 39.655178
v -20.567881 4.614724 -4.093921
v -20.567883 4.614724 6.631676
v -24.287075 4.618430 6.631669
v -24.287075 4.618430 -4.093927
v -24.287075 4.618430 1.268871
v -20.567883 4.614724 1.268878
v -20.567881 4.614724 -37.168484
v -24.287075 4.618430 -37.168488
v -20.567881 0.372509 -4.309561
v -20.567879 25.213478 -4.309558
v -20.567879 18.878702 -4.309558
v -20.567881 4.845593 -4.309558
v -20.567881 16.193174 -4.309558
v -24.287075 0.372509 -4.309564
v -24.287071 25.213478 -4.309570
v -24.287073 18.878702 -4.309570
v -24.287075 4.849500 -4.309564
v -24.287075 16.193174 -4.309566
v -24.287075 4.618430 -4.309564
v -20.567881 4.614724 -4.309558
v -20.567884 25.213478 6.792463
v -20.567884 18.878702 6.792463
v -20.567884 4.845593 6.792463
v -20.567884 16.193174 6.792463
v -24.287075 0.372509 6.792460
v -24.287077 25.213478 6.792454
v -24.287077 18.878702 6.792454
v -24.287075 4.849500 6.792457
v -24.287077 16.193174 6.792454
v -24.287075 4.618430 6.792457
v -20.567884 4.614724 6.792463
v -20.345976 4.845593 -4.309557
v -20.345976 4.845593 -4.093920
v -20.345978 4.845593 1.268878
v -20.345978 4.845593 6.631676
v -20.345976 16.193174 -4.309557
v -20.345976 16.193174 -4.093920
v -20.345978 16.193174 6.631676
v -20.345976 4.614724 -4.093920
v -20.345978 4.614724 6.631676
v -20.345978 4.614724 1.268878
v -20.345980 4.845593 6.792463
v -20.345980 16.193174 6.792463
v -20.567881 20.733627 1.171295
v -20.567881 20.733627 1.386932
v -20.567883 20.733627 1.196539
v -20.567884 20.733627 1.357325
v -20.345976 20.733627 1.171295
v -20.345976 20.733627 1.386932
v -20.345978 20.733627 1.196539
v -20.345980 20.733627 1.357325
vn 1.0000 0.0000 0.0000
vn 0.0000 1.0000 0.0000
vn -0.0000 -0.0000 1.0000
vn -0.0000 -1.0000 0.0000
vn -1.0000 -0.0000 -0.0000
vn 0.0011 1.0000 0.0000
vn 0.0000 -0.0000 -1.0000
vn 0.0000 -0.7792 -0.6268
vn -0.0000 -0.7792 0.6268
vn 0.0000 0.7674 0.6411
vn 0.0000 0.7701 -0.6380
vn 0.2791 -0.7425 -0.6089
vn 0.2209 -0.7554 0.6169
usemtl Material
s off
f 99//1 98//1 17//1 23//1
f 17//2 16//2 20//2 21//2
f 76//3 18//3 19//3 77//3
f 14//4 15//4 19//4 18//4
f 74//5 14//5 18//5 76//5
f 16//5 22//5 24//5 20//5
f 20//3 24//3 25//3 21//3
f 101//1 99//1 23//1 29//1
f 108//1 100//1 28//1 75//1
f 100//1 101//1 29//1 28//1
f 22//5 27//5 31//5 24//5
f 27//5 26//5 30//5 31//5
f 24//3 31//3 33//3 25//3
f 31//3 30//3 32//3 33//3
f 51//3 79//3 117//3 112//3
f 97//1 89//1 50//1 78//1
f 79//4 83//4 118//4 117//4
f 105//5 106//5 48//5 46//5
f 107//5 105//5 46//5 80//5
f 82//5 60//5 47//5 81//5
f 106//5 104//5 44//5 48//5
f 61//5 59//5 45//5 49//5
f 90//1 88//1 42//1 52//1
f 63//1 58//1 43//1 53//1
f 88//1 87//1 40//1 42//1
f 58//1 57//1 41//1 43//1
f 104//5 103//5 38//5 44//5
f 59//5 56//5 39//5 45//5
f 103//2 98//2 41//2 38//2
f 56//2 57//2 40//2 39//2
f 54//4 35//4 36//4 55//4
f 34//4 54//4 55//4 37//4
f 38//2 41//2 57//2 56//2
f 44//5 38//5 56//5 59//5
f 42//1 40//1 57//1 58//1
f 52//1 42//1 58//1 63//1
f 48//5 44//5 59//5 61//5
f 80//5 46//5 60//5 82//5
f 52//3 50//3 110//3 114//3
f 94//5 95//5 68//5 67//5
f 96//5 94//5 67//5 85//5
f 95//5 93//5 66//5 68//5
f 93//5 92//5 65//5 66//5
f 92//2 87//2 70//2 65//2
f 91//4 64//4 69//4 86//4
f 60//6 46//6 51//6 62//6 50//6 47//6
f 51//7 46//7 48//7 53//7
f 63//8 53//8 48//8 61//8
f 61//9 49//9 52//9 63//9
f 50//3 52//3 49//3 47//3
f 17//1 21//1 25//1 33//1 32//1 77//1 19//1 15//1 75//1 28//1 29//1 23//1
f 91//5 96//5 85//5 64//5
f 36//1 78//1 83//1 55//1
f 34//5 80//5 82//5 54//5
f 54//5 82//5 81//5 35//5
f 102//5 107//5 80//5 34//5
f 55//1 83//1 79//1 37//1
f 86//1 97//1 78//1 36//1
f 26//5 74//5 76//5 30//5
f 30//3 76//3 77//3 32//3
f 69//1 84//1 97//1 86//1
f 35//5 81//5 96//5 91//5
f 35//4 91//4 86//4 36//4
f 39//2 40//2 87//2 92//2
f 45//5 39//5 92//5 93//5
f 49//5 45//5 93//5 95//5
f 81//5 47//5 94//5 96//5
f 47//5 49//5 95//5 94//5
f 71//1 70//1 87//1 88//1
f 73//1 71//1 88//1 90//1
f 84//1 72//1 89//1 97//1
f 72//1 73//1 90//1 89//1
f 14//5 74//5 107//5 102//5
f 16//2 17//2 98//2 103//2
f 22//5 16//5 103//5 104//5
f 27//5 22//5 104//5 106//5
f 74//5 26//5 105//5 107//5
f 26//5 27//5 106//5 105//5
f 78//7 50//7 110//7 116//7
f 79//1 51//1 100//1 108//1
f 53//1 43//1 99//1 101//1
f 43//1 41//1 98//1 99//1
f 109//1 113//1 114//1 110//1
f 118//1 111//1 112//1 117//1
f 116//1 110//1 111//1 118//1
f 112//1 115//1 120//1 119//1
f 100//4 51//4 112//4 119//4
f 101//3 100//3 119//3 120//3
f 51//7 53//7 115//7 112//7
f 83//4 78//4 116//4 118//4
f 50//4 89//4 109//4 110//4
f 62//2 51//2 112//2 111//2
f 89//7 90//7 113//7 109//7
f 50//2 62//2 111//2 110//2
f 79//1 108//1 75//1 15//1 37//1
f 120//1 115//1 127//1 128//1
f 124//5 123//5 53//5 101//5
f 101//10 120//10 128//10 124//10
f 125//1 126//1 114//1 113//1
f 125//11 113//11 90//11 121//11
f 123//2 124//2 128//2 126//2 125//2 121//2
f 63//12 127//12 115//12 53//12
f 52//13 114//13 126//13 63//13
f 15//4 14//4 102//4 34//4 37//4
f 71//7 73//7 72//7 84//7 69//7 64//7 85//7 67//7 68//7 66//7 65//7 70//7
l 9 10
l 10 12
l 11 8
l 12 11
l 7 6
l 6 3
l 5 7
l 4 5
l 9 4
l 3 8
l 2 13
l 122 52
l 69 1
l 1 86
