# This file uses centimeters as units for non-parametric coordinates.

mtllib Cliff.mtl
g default
v -1.255222 -5.829477 3.759051
v -3.984874 -2.446015 2.923723
v -5.114849 7.221436 2.683279
v -2.744807 7.221463 5.366020
v 3.985284 -3.902631 2.919352
v 5.125941 7.221437 2.801754
v 2.254038 -8.054618 2.589751
v 0.129168 -8.601231 3.886684
v 3.488688 7.221455 4.561460
v 1.641220 7.221463 5.366020
v -3.984874 -2.083827 0.000000
v -5.120609 7.221437 -0.061528
v -2.744807 7.221463 0.000000
v 1.636476 7.221463 0.000000
v 3.481423 7.221455 0.013165
v 5.120170 7.221437 0.061638
v 3.990789 -2.372214 0.058799
v 1.938722 -7.658120 0.066997
v 0.508407 -9.650082 -0.292912
v -2.534935 -7.197094 -0.292911
v -3.042709 5.207304 5.648799
v -0.482406 3.294050 5.510267
v 4.025210 4.881155 5.793691
v 4.683613 2.907712 2.847356
v 4.682215 3.501183 0.060537
v 2.863634 1.417361 -4.095658
v 0.998155 1.175127 -4.676380
v -2.167171 2.048241 -4.676379
v -4.680191 3.613014 -0.037668
v -5.298874 4.314902 2.210566
v 5.156083 3.605967 2.205619
v 5.155329 4.007309 0.702274
v 5.391583 6.523183 0.702868
v 5.394696 6.523183 2.181019
v -2.308993 -4.701894 4.444334
v -1.601822 -5.794038 4.200977
v -4.262030 -2.435318 3.193344
v -4.262021 -2.270880 3.708702
v -3.383837 1.853094 5.391405
v -3.283518 2.999849 5.465744
v -5.087638 2.900970 3.795073
v -5.152448 3.471148 3.261910
v 1.681005 -6.712654 5.250829
v 1.977681 -7.304514 4.550926
v 0.067300 -7.159617 4.866529
v 0.707604 -6.317739 5.450561
v 2.223326 -1.027460 6.688659
v 3.360389 2.597108 5.554531
v 1.279259 -0.899111 6.464212
v 0.112461 1.854580 6.047185
v -3.516051 -2.082586 -3.202292
v -3.984874 -2.249823 -2.357508
v -1.497585 -6.075297 -2.891916
v -1.336728 -5.389095 -3.684911
v -5.124955 7.221437 -2.131897
v -4.679262 6.407825 -3.191974
v -2.663505 6.493331 -5.268953
v -2.426155 7.221463 -4.634296
v -4.261477 3.284031 -3.157984
v -4.682994 3.549571 -2.274155
v 4.679851 6.401325 -3.070584
v 5.115824 7.221436 -2.001993
v 4.681136 3.562220 -2.090148
v 4.312441 3.141812 -3.003879
v 1.907882 -7.727626 -2.678935
v 1.981562 -6.968282 -3.460717
v 0.088062 -7.510044 -3.685755
v 0.005042 -8.059488 -2.830322
v 3.398535 6.502526 -4.480694
v 3.032354 7.221457 -3.936053
v 1.476112 7.221463 -4.642401
v 1.556155 6.500213 -5.283755
v 3.995255 -2.206741 -2.262003
v 3.565477 -2.044252 -3.111712
v 0.340995 -0.446751 -5.159627
v -1.510011 0.063825 -5.159627
v -0.191206 -5.525628 -4.580335
v -1.024388 -4.285348 -4.579840
v -0.737218 -10.462474 1.202175
v -1.744027 -9.786417 1.202175
v -0.723609 -10.228400 2.642601
v -1.242211 -9.763454 2.642601
vt 0.458228 1.000000
vt 0.375000 0.937403
vt 0.380851 0.312494
vt 0.312506 0.210993
vt 0.553190 0.000000
vt 0.625461 0.239365
vt 0.649063 0.237161
vt 0.681994 0.035574
vt 0.684734 0.212716
vt 0.643742 0.232144
vt 0.502239 0.000000
vt 0.538232 0.250000
vt 0.436060 0.250000
vt 0.502240 1.000000
vt 0.250000 0.035511
vt 0.380717 0.376433
vt 0.752069 0.239094
vt 0.501085 0.875000
vt 0.524275 0.153054
vt 0.683672 0.144023
vt 0.683672 0.144023
vt 0.748590 0.143806
vt 0.748564 0.211820
vt 0.684734 0.212716
vt 0.437635 0.016630
vt 0.336813 0.042642
vt 0.330464 0.136720
vt 0.425750 0.142793
vt 0.458228 0.000000
vt 0.318107 0.035511
vt 0.444657 0.153054
vt 0.458228 0.000000
vt 0.314678 0.142944
vt 0.444657 0.153054
vt 0.318107 0.035511
vt 0.314678 0.142944
vt 0.576938 0.012323
vt 0.551823 0.023042
vt 0.596916 0.152047
vt 0.615979 0.144320
vt 0.578938 0.009457
vt 0.549199 0.021902
vt 0.618612 0.145790
vt 0.578938 0.009457
vt 0.595887 0.155035
vt 0.618612 0.145790
vt 0.549198 0.021900
vt 0.595887 0.155035
vt 0.391082 0.702862
vt 0.375000 0.714490
vt 0.375000 0.609903
vt 0.375000 0.818012
vt 0.385082 0.798524
vt 0.448773 0.756272
vt 0.492295 0.750000
vt 0.375000 0.538711
vt 0.375000 0.605960
vt 0.390998 0.449356
vt 0.436060 0.495845
vt 0.534386 0.483144
vt 0.536250 0.498084
vt 0.821528 0.200029
vt 0.855886 0.011930
vt 0.859459 0.008728
vt 0.841828 0.000000
vt 0.873137 0.000836
vt 0.857026 0.229169
vt 0.874166 0.228327
vt 0.872654 0.234533
vt 0.375000 0.871308
vt 0.458228 0.773674
vt 0.436060 0.375000
vt 0.380616 0.424662
vt 0.383960 0.546921
vt 0.437270 0.513645
vt 0.197024 0.143927
vt 0.248567 0.211888
vt 0.200338 0.212563
vt 0.748590 0.143806
vt 0.796636 0.211145
vt 0.714095 0.000000
vt 0.831501 0.008881
vt 0.874465 0.156587
vt 0.855896 0.221013
vt 0.749693 0.231932
vt 0.841024 0.240763
vt 0.719909 0.009135
vt 0.802693 0.037123
vt 0.748564 0.211820
vt 0.840177 0.233667
vt 0.822461 0.143932
vt 0.538121 0.375000
vt 0.443483 0.482955
vt 0.536249 0.511564
vt 0.500168 0.775770
vt 0.458228 0.875000
vt 0.798689 0.143639
vt 0.748630 0.036429
vt 0.828059 0.055181
vt 0.860608 0.020395
vt 0.874952 0.039579
vt 0.857675 0.145280
vt 0.523244 0.596946
vt 0.502031 0.736202
vt 0.457015 0.736321
vt 0.386687 0.604448
vt 0.444657 0.596946
vt 0.195082 0.035511
vt 0.249123 0.143492
vt 0.444657 0.596946
vt 0.523244 0.596946
vt 0.502031 0.736202
vt 0.457015 0.736321
vt 0.458228 0.875000
vt 0.501085 0.875000
vt 0.502240 1.000000
vt 0.458228 1.000000
vn -0.800417 0.055353 0.596882
vn -0.800417 0.055353 0.596882
vn -0.800417 0.055353 0.596882
vn -0.800417 0.055353 0.596882
vn -0.121818 -0.078723 0.989426
vn 0.660850 0.047491 0.749014
vn 0.576679 0.172394 0.798575
vn 0.031273 0.149466 0.988272
vn 0.828466 -0.136044 0.543265
vn 0.909527 0.090769 0.405613
vn -0.058826 -0.033983 0.997690
vn 0.035647 0.057179 0.997727
vn -0.995474 -0.075467 -0.057765
vn -0.990195 -0.126944 -0.058302
vn -0.987877 -0.108104 -0.111408
vn -0.992591 -0.030968 -0.117493
vn -0.000011 1.000000 -0.000000
vn -0.000002 1.000000 0.000000
vn -0.000003 1.000000 -0.000000
vn -0.000011 1.000000 -0.000000
vn 0.000001 1.000000 0.000000
vn 0.000001 1.000000 -0.000000
vn 0.000006 1.000000 -0.000000
vn 0.000007 1.000000 -0.000000
vn 0.000011 1.000000 -0.000000
vn 0.000011 1.000000 -0.000000
vn 0.996113 -0.087121 -0.013019
vn 0.996113 -0.087121 -0.013019
vn 0.996113 -0.087121 -0.013019
vn 0.996113 -0.087121 -0.013019
vn 0.957659 -0.259515 -0.124664
vn 0.914869 -0.360550 -0.181707
vn 0.927786 -0.360244 -0.097147
vn 0.975230 -0.215603 -0.049414
vn 0.549970 -0.812015 0.195355
vn 0.484522 -0.809932 0.330527
vn 0.593572 -0.800430 0.083568
vn 0.593572 -0.800430 0.083568
vn -0.589641 -0.788294 0.175828
vn -0.589641 -0.788294 0.175828
vn -0.589641 -0.788294 0.175828
vn -0.589641 -0.788294 0.175828
vn -0.880477 -0.418946 0.221911
vn -0.880477 -0.418946 0.221911
vn -0.962507 -0.270476 -0.020579
vn -0.912345 -0.409214 0.013039
vn -0.197596 -0.168619 0.965673
vn -0.197596 -0.168619 0.965673
vn 0.798680 -0.190425 0.570832
vn 0.798680 -0.190425 0.570832
vn 0.993301 -0.113864 -0.019681
vn 0.993219 -0.109050 -0.040290
vn -0.980598 -0.164579 -0.106492
vn 0.778561 -0.611263 -0.142131
vn 0.778561 -0.611263 -0.142131
vn 0.778561 -0.611263 -0.142131
vn 0.778561 -0.611263 -0.142131
vn 0.855156 -0.092315 -0.510085
vn 0.855156 -0.092315 -0.510085
vn 0.855156 -0.092315 -0.510085
vn 0.855156 -0.092315 -0.510085
vn 0.932669 0.360727 -0.001964
vn 0.932670 0.360727 -0.001964
vn 0.932669 0.360727 -0.001964
vn 0.932670 0.360727 -0.001964
vn 0.859855 -0.076072 0.504839
vn 0.859855 -0.076072 0.504839
vn 0.859855 -0.076072 0.504840
vn 0.859855 -0.076072 0.504839
vn 0.210422 -0.102314 0.972242
vn 0.210422 -0.102314 0.972242
vn 0.210422 -0.102314 0.972242
vn 0.210422 -0.102314 0.972242
vn -0.794617 -0.571269 0.205510
vn -0.794618 -0.571269 0.205510
vn -0.945606 -0.315635 0.078766
vn -0.927056 -0.361132 0.100752
vn -0.988209 -0.153100 0.001847
vn -0.988209 -0.153100 0.001847
vn -0.671121 0.204321 0.712636
vn -0.671121 0.204321 0.712636
vn -0.671121 0.204321 0.712636
vn -0.671121 0.204321 0.712636
vn -0.639583 -0.169724 0.749752
vn -0.639583 -0.169724 0.749752
vn -0.639583 -0.169724 0.749752
vn -0.639583 -0.169724 0.749752
vn -0.608679 -0.621432 -0.493287
vn -0.608679 -0.621432 -0.493287
vn -0.608680 -0.621432 -0.493287
vn -0.608679 -0.621432 -0.493287
vn 0.529379 -0.042178 0.847336
vn 0.529379 -0.042178 0.847336
vn 0.529379 -0.042178 0.847336
vn 0.529379 -0.042178 0.847336
vn -0.799595 0.187123 0.570643
vn -0.799595 0.187123 0.570643
vn -0.799595 0.187123 0.570643
vn -0.799595 0.187123 0.570643
vn -0.961930 -0.177953 -0.207422
vn -0.961930 -0.177953 -0.207422
vn -0.961930 -0.177953 -0.207422
vn -0.961930 -0.177953 -0.207422
vn 0.894936 -0.174829 0.410516
vn 0.894936 -0.174829 0.410516
vn 0.894936 -0.174829 0.410516
vn 0.894937 -0.174829 0.410516
vn 0.007883 -0.668144 0.743990
vn 0.007883 -0.668144 0.743990
vn 0.007883 -0.668144 0.743990
vn 0.007883 -0.668144 0.743990
vn -0.561622 -0.100854 0.821224
vn -0.561622 -0.100854 0.821224
vn -0.561622 -0.100854 0.821224
vn -0.561622 -0.100854 0.821224
vn 0.027517 0.236338 0.971281
vn 0.027517 0.236338 0.971281
vn 0.027517 0.236338 0.971281
vn 0.027517 0.236338 0.971281
vn -0.069449 -0.208417 0.975571
vn -0.069449 -0.208417 0.975571
vn -0.069449 -0.208417 0.975571
vn -0.069449 -0.208417 0.975571
vn 0.310219 -0.744837 0.590747
vn 0.310219 -0.744837 0.590747
vn 0.922747 -0.189286 0.335721
vn 0.922747 -0.189286 0.335721
vn 0.922747 -0.189286 0.335721
vn 0.922747 -0.189286 0.335721
vn 0.002965 0.079657 0.996818
vn 0.002965 0.079657 0.996818
vn 0.002965 0.079657 0.996818
vn 0.002965 0.079657 0.996818
vn -0.941108 -0.069859 0.330809
vn -0.941108 -0.069859 0.330809
vn -0.941108 -0.069859 0.330809
vn -0.941108 -0.069859 0.330809
vn -0.637424 -0.169393 -0.751662
vn -0.940605 -0.255672 -0.223369
vn -0.986228 -0.119758 -0.114071
vn -0.715797 -0.131570 -0.685801
vn -0.674905 -0.322129 -0.663879
vn -0.848717 -0.404903 -0.340195
vn -0.707197 -0.511532 -0.488066
vn -0.707197 -0.511532 -0.488066
vn -0.990524 -0.119964 -0.066858
vn -0.776700 -0.134712 -0.615297
vn -0.579651 0.566027 -0.586190
vn -0.579651 0.566027 -0.586190
vn -0.579651 0.566027 -0.586190
vn -0.579651 0.566027 -0.586190
vn -0.002676 0.660951 -0.750425
vn -0.002676 0.660951 -0.750425
vn 0.098918 0.667901 -0.737647
vn 0.089390 0.667547 -0.739183
vn 0.822083 -0.114690 -0.557697
vn 0.990886 -0.116490 -0.067640
vn 0.987655 -0.116421 -0.104804
vn 0.787649 -0.112953 -0.605682
vn 0.586141 0.573410 -0.572399
vn 0.586141 0.573410 -0.572399
vn 0.467886 0.619205 -0.630609
vn 0.467683 0.619271 -0.630695
vn 0.966134 -0.235451 -0.105587
vn 0.737636 -0.141488 -0.660207
vn 0.934671 -0.348248 -0.071508
vn 0.889461 -0.286529 -0.356034
vn 0.235967 -0.769931 -0.592896
vn 0.235967 -0.769931 -0.592896
vn 0.235967 -0.769931 -0.592896
vn 0.235967 -0.769931 -0.592896
vn -0.000002 1.000000 -0.000000
vn -0.000011 1.000000 -0.000000
vn -0.673917 -0.141420 -0.725146
vn -0.572272 -0.131709 -0.809418
vn 0.993080 -0.117398 -0.002979
vn 0.577618 -0.767060 -0.279242
vn -0.125158 -0.886841 -0.444802
vn -0.329534 -0.830451 -0.449176
vn 0.577618 -0.767060 -0.279242
vn 0.434612 -0.116499 -0.893051
vn 0.166262 -0.121618 -0.978553
vn 0.128984 -0.125350 -0.983692
vn 0.517162 -0.123389 -0.846947
vn 0.000005 1.000000 -0.000000
vn 0.000001 1.000000 -0.000000
vn 0.000011 1.000000 -0.000000
vn -0.016274 -0.121784 -0.992423
vn -0.016274 -0.121784 -0.992423
vn -0.633678 -0.654930 -0.411727
vn -0.633678 -0.654930 -0.411727
vn 0.258952 -0.115966 -0.958903
vn 0.231297 -0.116261 -0.965912
vn -0.079272 -0.121251 -0.989451
vn -0.079272 -0.121251 -0.989451
vn -0.079272 -0.121251 -0.989451
vn -0.079272 -0.121251 -0.989451
vn 0.071224 0.258210 -0.963460
vn 0.071224 0.258210 -0.963460
vn 0.071224 0.258210 -0.963460
vn 0.071224 0.258210 -0.963460
vn 0.798876 -0.150146 -0.582455
vn 0.798875 -0.150146 -0.582455
vn 0.798875 -0.150146 -0.582455
vn 0.798876 -0.150146 -0.582455
vn -0.593825 -0.398635 -0.698901
vn -0.593825 -0.398635 -0.698901
vn -0.593825 -0.398635 -0.698901
vn -0.593825 -0.398635 -0.698901
vn -0.852760 -0.161437 -0.496727
vn -0.852760 -0.161437 -0.496727
vn -0.852760 -0.161437 -0.496727
vn -0.852760 -0.161437 -0.496727
vn -0.433772 -0.561462 -0.704700
vn -0.433771 -0.561462 -0.704701
vn -0.433772 -0.561462 -0.704701
vn -0.433772 -0.561462 -0.704701
vn 0.753653 -0.628453 0.192493
vn 0.753653 -0.628453 0.192493
vn 0.753653 -0.628453 0.192493
vn 0.753653 -0.628453 0.192493
vn -0.512108 -0.268923 0.815736
vn -0.512108 -0.268923 0.815736
vn -0.512108 -0.268923 0.815736
vn -0.512108 -0.268923 0.815736
vn -0.939318 -0.096655 0.329151
vn -0.939317 -0.096655 0.329151
vn -0.939317 -0.096655 0.329151
vn -0.939317 -0.096655 0.329151
s off
g initialShadingGroup pCube1
f 30/33/1 21/31/2 4/13/3 3/4/4
s 1
f 22/45/5 23/43/6 9/10/7 10/6/8
f 23/43/6 24/20/9 6/9/10 9/10/7
f 21/31/11 22/19/5 10/12/8 4/13/12
s 2
f 12/77/13 29/109/14 30/33/15 3/4/16
s 3
f 3/3/17 4/13/18 13/72/19 12/16/20
f 4/13/18 10/12/21 14/92/22 13/72/19
f 10/7/21 9/10/23 15/85/24 14/17/22
f 9/10/23 6/9/25 16/89/26 15/85/24
s off
f 31/21/27 32/22/28 33/23/29 34/24/30
s 4
f 5/8/31 7/41/32 18/87/33 17/98/34
s 5
f 7/41/35 8/5/36 19/81/37 18/87/38
s off
f 80/114/39 79/115/40 81/116/41 82/117/42
s 2
f 1/1/43 2/2/44 11/70/45 20/96/46
s 1
f 1/29/47 8/11/48 22/19/5 21/31/11
f 7/41/49 5/8/50 24/20/9 23/43/6
s 4
f 5/8/31 17/98/34 25/79/51 24/20/52
s 2
f 30/33/15 29/109/14 11/15/45 2/35/53
s off
f 24/20/54 25/79/55 32/22/56 31/21/57
f 25/79/58 16/89/59 33/23/60 32/22/61
f 16/89/62 6/9/63 34/24/64 33/23/65
f 6/9/66 24/20/67 31/21/68 34/24/69
f 35/25/70 36/32/71 40/34/72 39/28/73
s 7
f 36/32/74 35/25/75 38/26/76 37/30/77
f 37/30/77 38/26/76 41/27/78 42/36/79
s off
f 39/28/80 40/34/81 42/36/82 41/27/83
f 38/26/84 35/25/85 39/28/86 41/27/87
f 2/35/88 1/29/89 36/32/90 37/30/91
f 1/29/92 21/31/93 40/34/94 36/32/95
f 21/31/96 30/33/97 42/36/98 40/34/99
f 30/33/100 2/35/101 37/30/102 42/36/103
f 43/37/104 44/44/105 48/46/106 47/40/107
f 44/44/108 43/37/109 46/38/110 45/42/111
f 45/42/112 46/38/113 49/39/114 50/48/115
f 47/40/116 48/46/117 50/48/118 49/39/119
f 46/38/120 43/37/121 47/40/122 49/39/123
s 5
f 8/47/36 7/41/35 44/44/124 45/42/125
s off
f 7/41/126 23/43/127 48/46/128 44/44/129
f 23/43/130 22/45/131 50/48/132 48/46/133
f 22/45/134 8/47/135 45/42/136 50/48/137
s 2
f 51/49/138 52/50/139 60/51/140 59/106/141
f 52/52/139 51/53/138 54/54/142 53/71/143
f 53/71/143 54/105/142 67/55/144 68/95/145
f 55/56/146 56/74/147 59/106/141 60/57/140
s off
f 56/58/148 55/73/149 58/93/150 57/59/151
s 9
f 57/75/152 58/93/153 71/60/154 72/61/155
s 4
f 61/62/156 62/80/157 63/97/158 64/91/159
s 9
f 62/80/160 61/62/161 69/84/162 70/90/163
s 4
f 64/91/159 63/97/158 73/88/164 74/99/165
f 65/82/166 66/63/167 74/99/165 73/88/164
s off
f 66/64/168 65/82/169 68/65/170 67/66/171
s 9
f 70/67/163 69/84/162 72/68/155 71/69/154
s 2
f 20/96/46 11/70/45 52/52/139 53/71/143
s 3
f 12/16/20 13/72/19 58/93/172 55/73/173
s 2
f 56/74/147 57/75/174 28/107/175 59/106/141
f 60/76/140 29/109/14 12/77/13 55/78/146
s 4
f 16/89/176 25/79/51 63/97/158 62/80/157
s 11
f 18/87/177 19/81/178 68/65/179 65/82/180
s 4
f 26/102/181 27/83/182 72/68/183 69/84/184
s 3
f 14/17/22 15/85/24 70/90/185 71/86/186
s 4
f 17/98/34 18/87/33 65/82/166 73/88/164
s 3
f 15/85/24 16/89/26 62/80/187 70/90/185
s 4
f 69/84/184 61/62/156 64/91/159 26/102/181
s 3
f 13/72/19 14/92/22 71/60/186 58/93/172
s 4
f 57/75/188 72/94/183 27/103/182 28/107/189
s 11
f 53/71/190 68/95/179 19/18/178 20/96/191
s 4
f 63/97/158 25/79/51 17/98/34 73/88/164
f 26/102/181 64/91/159 74/99/165 66/100/192
f 66/100/192 67/101/193 27/83/182 26/102/181
s off
f 76/110/194 75/111/195 77/112/196 78/113/197
s 2
f 59/106/141 28/107/175 54/105/142 51/49/138
f 52/108/139 11/15/45 29/109/14 60/76/140
s off
f 28/107/198 27/103/199 75/111/200 76/110/201
f 27/103/202 67/104/203 77/112/204 75/111/205
f 67/104/206 54/105/207 78/113/208 77/112/209
f 54/105/210 28/107/211 76/110/212 78/113/213
f 20/96/214 19/18/215 79/115/216 80/114/217
f 19/18/218 8/14/219 81/116/220 79/115/221
f 8/14/222 1/1/223 82/117/224 81/116/225
f 1/1/226 20/96/227 80/114/228 82/117/229
