# Blender v2.79 (sub 0) OBJ File: 'Toldo2.blend'
# www.blender.org
mtllib Toldo2.mtl
o Cube
v -2.364957 -0.138490 6.244405
v -2.999937 -0.138490 6.245318
v -3.000709 -0.138490 5.708699
v -2.365729 -0.138490 5.707786
v -2.619866 14.353920 6.057134
v -2.789032 14.384129 6.057627
v -2.609268 14.054842 5.768221
v -2.554747 14.188246 5.767728
v -2.510923 3.121853 6.362471
v -2.458290 7.034264 6.123075
v -2.316832 10.946676 6.075034
v -2.993777 3.121853 6.363025
v -2.843549 7.034264 6.123629
v -2.702090 10.946676 6.075588
v -2.994245 3.121853 6.037444
v -2.844018 7.034264 5.798047
v -2.702559 10.946676 5.750008
v -2.511391 3.121853 6.036890
v -2.458759 7.034264 5.797493
v -2.317300 10.946676 5.749454
v 4.652277 -0.138490 6.145339
v 5.076702 -0.138490 6.144729
v 5.076185 -0.138490 5.786050
v 4.651761 -0.138490 5.786660
v 4.628211 14.110651 6.046956
v 4.846972 14.110651 6.046463
v 4.788633 14.437729 5.757057
v 4.627794 14.437729 5.757550
v 4.791027 3.121853 6.351825
v 4.640111 7.034264 6.112863
v 4.498515 10.946676 6.065229
v 5.176285 3.121853 6.351271
v 5.025370 7.034264 6.112309
v 4.883774 10.946676 6.064675
v 5.175817 3.121853 6.025690
v 5.024902 7.034264 5.786727
v 4.883305 10.946676 5.739095
v 4.790558 3.121853 6.026244
v 4.639643 7.034264 5.787281
v 4.498046 10.946676 5.739649
v -3.083845 13.775452 6.266450
v 5.152540 13.920383 6.518595
v -4.140604 17.616318 -6.334587
v 4.852769 17.591843 -6.334588
v -3.612224 13.297239 -0.034069
v 1.034348 12.503981 6.392522
v 5.002655 13.357468 0.092003
v 0.356082 15.930117 -6.334587
v 0.695215 12.849815 0.028967
v -3.348035 13.360920 3.116190
v 3.093444 12.904039 6.455559
v 4.927712 14.520962 -3.121292
v -1.892261 16.590576 -6.334588
v -3.876414 14.503084 -3.184328
v -1.024748 12.739664 6.329486
v 5.077598 13.463499 3.305299
v 2.604426 16.578341 -6.334588
v 0.525649 14.159256 -3.152810
v 0.864782 12.622797 3.210745
v -1.458505 13.072289 -0.002551
v 2.848935 13.102402 0.060485
v 2.971190 13.137568 3.258022
v -1.241627 13.086277 3.163467
v -1.675382 14.267546 -3.168569
v 2.726680 14.276484 -3.137051
v -3.744319 13.708551 -1.609198
v 4.965183 13.688643 -1.514645
v -3.215940 13.632633 4.691320
v 4.122993 13.347689 6.487076
v 4.890240 15.453493 -4.727941
v -3.016433 16.952955 -6.334587
v -3.678272 13.504494 -0.821634
v 0.004800 12.589972 6.361004
v 5.040126 13.179892 1.698651
v 1.480254 16.163448 -6.334587
v 0.440866 14.953999 -4.743699
v 0.779998 12.661211 1.619856
v -2.535364 13.224205 -0.018310
v 1.772075 12.899258 0.044726
v -3.480130 13.098488 1.541061
v 2.063896 12.626204 6.424040
v 4.946447 13.996599 -2.317969
v -0.768089 16.169567 -6.334587
v -4.008509 15.456791 -4.759458
v -2.054296 13.238993 6.297967
v 5.115069 13.756388 4.911946
v 3.728597 16.934601 -6.334588
v 0.610432 13.458178 -1.561921
v 0.949565 12.630163 4.801634
v -0.381645 12.884199 0.013208
v 3.925795 13.269377 0.076244
v 2.910062 12.928833 1.659253
v 3.032317 13.126793 4.856790
v 1.917985 12.829891 3.234383
v 4.024394 13.300533 3.281660
v -1.350066 12.888132 1.580459
v -1.133188 13.064917 4.746477
v -2.294831 13.223598 3.139829
v -0.188423 12.804245 3.187106
v -1.783821 14.954823 -4.751578
v -1.566944 13.623192 -1.585560
v -2.775898 14.424757 -3.176449
v -0.574867 14.215797 -3.160689
v 2.665553 14.953173 -4.735820
v 2.787808 13.563833 -1.538283
v 1.626164 14.220266 -3.144931
v 3.827196 14.438164 -3.129172
v -3.810366 13.968134 -2.396763
v 4.983919 13.476692 -0.711321
v 1.699120 13.434153 -1.550102
v 1.553209 14.953585 -4.739759
v -0.478256 13.424389 -1.573740
v -2.896165 15.205807 -4.755518
v -0.091812 12.720205 4.774055
v -2.174564 13.348774 4.718899
v -2.415098 12.993309 1.560760
v 4.073693 13.441591 4.884369
v 1.990941 12.685820 4.829212
v 1.845030 12.714975 1.639555
v 3.975094 13.054363 1.678952
v -0.285034 12.694624 1.600157
v -0.671478 14.954411 -4.747639
v 3.777896 15.203333 -4.731880
v -4.090375 17.462646 -6.179392
v -4.090375 17.541214 -6.179392
v -4.094565 17.458456 -6.244402
v -4.094565 17.545404 -6.244402
v -4.011808 17.462646 -6.179392
v -4.011808 17.541214 -6.179392
v -4.007618 17.458456 -6.244402
v -4.007618 17.545404 -6.244402
v -4.064544 17.515383 -6.373494
v -4.064544 17.488478 -6.373494
v -4.037640 17.488478 -6.373494
v -4.037640 17.515383 -6.373494
v 4.668303 17.469147 -6.153977
v 4.668303 17.536793 -6.153977
v 4.652461 17.453306 -6.259073
v 4.652461 17.552635 -6.259073
v 4.735949 17.469147 -6.153978
v 4.735949 17.536793 -6.153978
v 4.751791 17.453306 -6.259073
v 4.751791 17.552635 -6.259073
v 4.688744 17.516352 -6.359825
v 4.688744 17.489588 -6.359825
v 4.715508 17.489588 -6.359826
v 4.715508 17.516352 -6.359826
vn 0.0000 -1.0000 0.0000
vn -0.3056 0.6559 -0.6902
vn 0.0022 0.0054 1.0000
vn -0.9599 0.0009 -0.2804
vn -0.0041 0.0057 -1.0000
vn 0.9990 0.0448 -0.0014
vn 0.9933 0.0807 0.0827
vn 0.9993 -0.0362 -0.0014
vn 0.9999 -0.0135 -0.0014
vn -0.0013 0.1003 -0.9950
vn -0.0013 -0.0610 -0.9981
vn -0.0014 -0.0122 -0.9999
vn -1.0000 0.0018 0.0014
vn -0.9993 0.0385 0.0014
vn -0.9993 0.0362 0.0014
vn 0.0013 -0.0361 0.9993
vn 0.0013 0.0610 0.9981
vn 0.0014 0.0122 0.9999
vn 0.0019 0.6628 0.7488
vn 0.0017 0.0057 1.0000
vn 0.9962 0.0197 -0.0848
vn -0.0019 0.0051 -1.0000
vn -0.9991 0.0424 0.0014
vn -0.9990 0.0389 0.0222
vn -0.9993 -0.0362 0.0014
vn -0.9993 -0.0385 0.0014
vn -0.0014 0.0733 -0.9973
vn -0.0014 -0.0610 -0.9981
vn 0.9995 -0.0304 -0.0014
vn 0.9993 0.0385 -0.0014
vn 0.9993 0.0362 -0.0014
vn 0.0014 -0.0633 0.9980
vn 0.0014 0.0610 0.9981
vn -0.2507 0.6147 0.7479
vn 0.0872 0.8224 0.5621
vn 0.0295 0.9928 0.1165
vn -0.1005 0.9872 0.1235
vn -0.1917 0.9744 0.1172
vn -0.3373 0.9395 0.0597
vn -0.2177 0.9680 -0.1250
vn 0.1163 0.9858 0.1210
vn 0.1980 0.9791 -0.0465
vn 0.1281 0.9916 0.0166
vn 0.1846 0.6778 0.7117
vn 0.0495 0.9346 0.3522
vn 0.0056 0.9053 0.4248
vn -0.1379 0.7378 0.6608
vn -0.0803 0.9010 0.4262
vn -0.0674 0.9364 0.3444
vn -0.0191 0.9056 0.4237
vn -0.0154 0.9409 0.3384
vn -0.1486 0.9422 0.3002
vn -0.0863 0.8195 0.5666
vn -0.0270 0.9008 0.4334
vn -0.0252 0.9141 0.4047
vn 0.1004 0.9087 0.4051
vn 0.1633 0.9361 0.3116
vn -0.0041 0.9404 0.3401
vn 0.2513 0.6178 0.7451
vn 0.1275 0.8733 0.4701
vn 0.1637 0.8992 0.4057
vn 0.2863 0.9580 0.0133
vn 0.2271 0.9659 0.1241
vn 0.0823 0.9937 0.0755
vn 0.1985 0.9703 -0.1380
vn 0.3690 0.9286 -0.0392
vn 0.3493 0.9314 0.1029
vn 0.0801 0.9885 0.1282
vn 0.1155 0.9800 -0.1623
vn 0.1155 0.9832 -0.1416
vn -0.2215 0.9746 -0.0320
vn -0.3446 0.9329 0.1042
vn -0.3937 0.9192 -0.0094
vn -0.1255 0.9909 0.0487
vn -0.0872 0.9942 0.0623
vn -0.3288 0.9394 0.0969
vn -0.0497 0.9917 0.1185
vn -0.1218 0.9924 -0.0178
vn -0.2364 0.9676 -0.0881
vn -0.1363 0.9829 0.1240
vn -0.1310 0.9821 -0.1350
vn -0.1301 0.9788 -0.1581
vn 0.1728 0.9794 0.1043
vn 0.2199 0.9695 -0.1083
vn 0.1014 0.9944 -0.0281
vn 0.1384 0.7408 0.6573
vn 0.0193 0.9123 0.4091
vn 0.0209 0.9009 0.4335
vn -0.1843 0.6752 0.7142
vn -0.1690 0.8965 0.4096
vn -0.1341 0.8745 0.4662
vn -0.9979 0.0000 0.0643
vn 0.0000 0.9740 -0.2265
vn 0.9979 0.0000 0.0643
vn 0.0000 0.0000 1.0000
vn 0.0000 -0.9979 0.0643
vn 0.0000 0.9979 0.0643
vn 0.0000 0.0000 -1.0000
vn -0.9740 0.0000 -0.2265
vn 0.9740 0.0000 -0.2265
vn 0.0000 -0.9740 -0.2265
vn -0.9888 0.0000 0.1491
vn 0.9409 0.0000 -0.3388
vn 0.9888 0.0000 0.1491
vn 0.0000 -0.9888 0.1490
vn 0.0000 0.9888 0.1491
vn -0.0000 -0.9409 -0.3388
vn -0.0000 0.9408 -0.3388
vn -0.9409 0.0000 -0.3388
usemtl Material
s off
f 1//1 2//1 3//1 4//1
f 5//2 8//2 7//2 6//2
f 11//3 5//3 6//3 14//3
f 14//4 6//4 7//4 17//4
f 17//5 7//5 8//5 20//5
f 9//6 1//6 4//6 18//6
f 5//7 11//7 20//7 8//7
f 11//8 10//8 19//8 20//8
f 10//9 9//9 18//9 19//9
f 3//10 15//10 18//10 4//10
f 15//11 16//11 19//11 18//11
f 16//12 17//12 20//12 19//12
f 2//13 12//13 15//13 3//13
f 12//14 13//14 16//14 15//14
f 13//15 14//15 17//15 16//15
f 1//16 9//16 12//16 2//16
f 9//17 10//17 13//17 12//17
f 10//18 11//18 14//18 13//18
f 21//1 24//1 23//1 22//1
f 25//19 26//19 27//19 28//19
f 31//20 34//20 26//20 25//20
f 34//21 37//21 27//21 26//21
f 37//22 40//22 28//22 27//22
f 29//23 38//23 24//23 21//23
f 25//24 28//24 40//24 31//24
f 31//25 40//25 39//25 30//25
f 30//26 39//26 38//26 29//26
f 23//27 24//27 38//27 35//27
f 35//28 38//28 39//28 36//28
f 36//12 39//12 40//12 37//12
f 22//29 23//29 35//29 32//29
f 32//30 35//30 36//30 33//30
f 33//31 36//31 37//31 34//31
f 21//32 22//32 32//32 29//32
f 29//33 32//33 33//33 30//33
f 30//18 33//18 34//18 31//18
f 123//34 70//34 44//34 87//34
f 122//35 76//35 48//35 83//35
f 121//36 77//36 49//36 90//36
f 120//37 74//37 47//37 91//37
f 119//38 92//38 61//38 79//38
f 118//39 93//39 62//39 94//39
f 117//40 86//40 56//40 95//40
f 116//41 96//41 60//41 78//41
f 115//42 97//42 63//42 98//42
f 114//43 89//43 59//43 99//43
f 113//44 100//44 53//44 71//44
f 45//45 78//45 60//45 101//45 64//45 102//45 54//45 108//45 66//45 72//45
f 112//46 88//46 58//46 103//46
f 111//47 104//47 57//47 75//47
f 110//48 105//48 65//48 106//48
f 61//49 91//49 47//49 109//49 67//49 82//49 52//49 107//49 65//49 105//49
f 88//50 110//50 106//50 58//50
f 49//51 79//51 110//51 88//51
f 79//52 61//52 105//52 110//52
f 76//53 111//53 75//53 48//53
f 58//54 106//54 111//54 76//54
f 106//55 65//55 104//55 111//55
f 101//56 112//56 103//56 64//56
f 60//57 90//57 112//57 101//57
f 90//58 49//58 88//58 112//58
f 84//59 113//59 71//59 43//59
f 54//60 102//60 113//60 84//60
f 102//61 64//61 100//61 113//61
f 97//62 114//62 99//62 63//62
f 55//63 73//63 114//63 97//63
f 73//64 46//64 89//64 114//64
f 68//65 115//65 98//65 50//65
f 41//66 85//66 115//66 68//66
f 85//67 55//67 97//67 115//67
f 80//68 116//68 78//68 45//68
f 50//69 98//69 116//69 80//69
f 98//70 63//70 96//70 116//70
f 93//71 117//71 95//71 62//71
f 51//72 69//72 117//72 93//72
f 69//73 42//73 86//73 117//73
f 89//74 118//74 94//74 59//74
f 46//75 81//75 118//75 89//75
f 81//76 51//76 93//76 118//76
f 77//77 119//77 79//77 49//77
f 59//78 94//78 119//78 77//78
f 94//79 62//79 92//79 119//79
f 92//80 120//80 91//80 61//80
f 62//81 95//81 120//81 92//81
f 95//82 56//82 74//82 120//82
f 96//83 121//83 90//83 60//83
f 63//84 99//84 121//84 96//84
f 99//85 59//85 77//85 121//85
f 100//86 122//86 83//86 53//86
f 64//87 103//87 122//87 100//87
f 103//88 58//88 76//88 122//88
f 104//89 123//89 87//89 57//89
f 65//90 107//90 123//90 104//90
f 107//91 52//91 70//91 123//91
f 124//92 125//92 127//92 126//92
f 127//93 131//93 135//93 132//93
f 130//94 131//94 129//94 128//94
f 128//95 129//95 125//95 124//95
f 126//96 130//96 128//96 124//96
f 131//97 127//97 125//97 129//97
f 133//98 132//98 135//98 134//98
f 126//99 127//99 132//99 133//99
f 131//100 130//100 134//100 135//100
f 130//101 126//101 133//101 134//101
f 136//102 137//102 139//102 138//102
f 143//103 142//103 146//103 147//103
f 142//104 143//104 141//104 140//104
f 140//95 141//95 137//95 136//95
f 138//105 142//105 140//105 136//105
f 143//106 139//106 137//106 141//106
f 145//98 144//98 147//98 146//98
f 142//107 138//107 145//107 146//107
f 139//108 143//108 147//108 144//108
f 138//109 139//109 144//109 145//109
