# Blender v2.79 (sub 0) OBJ File: 'Toldo.blend'
# www.blender.org
mtllib Toldo.mtl
o Plane.001
v -3.859423 12.012876 7.237954
v 5.478113 12.276814 7.237954
v -3.909591 14.187470 -6.089857
v 5.624132 14.086126 -6.124240
v -3.894069 14.075857 0.367478
v 0.682091 13.104920 7.351303
v 5.471148 13.889574 0.367478
v 0.754232 15.230463 -6.197914
v 0.754232 15.249700 0.367478
v -3.894069 13.717571 4.267699
v 3.622128 12.834594 7.351303
v 5.471148 13.889574 -3.532744
v -2.147109 15.230463 -6.197914
v -3.894069 14.075857 -3.532744
v -2.185805 12.135593 7.351303
v 5.496403 13.531288 4.267699
v 3.707154 15.230463 -6.197914
v 0.754232 15.249700 -3.532744
v 0.754232 14.885520 4.267699
v -2.113664 15.249700 0.367478
v 3.622128 15.249700 0.367478
v 3.622128 14.885520 4.267699
v -2.113664 14.885520 4.267699
v -2.113664 15.249700 -3.532744
v 3.622128 15.249700 -3.532744
v -3.894069 13.147418 6.119491
v 4.903629 12.332325 7.351303
v 5.578492 13.911677 -5.300126
v -3.511693 14.999542 -6.185730
v -3.894069 14.075857 -1.582633
v -0.896138 12.942261 7.351303
v 5.471148 13.825930 2.317589
v 2.188180 15.230463 -6.197914
v 0.754232 15.246815 -5.346350
v 0.754232 15.201967 2.317589
v -3.420337 15.073624 0.367478
v 2.188180 15.249700 0.367478
v -3.894069 14.012213 2.317589
v 2.188180 13.084948 7.351303
v 5.471148 13.889574 -1.582633
v -0.679716 15.230463 -6.197914
v -3.927514 14.075857 -5.288665
v -3.377912 12.571817 7.351303
v 5.550444 13.105000 6.119491
v 5.262522 14.984389 -6.197191
v 0.754232 15.249700 -1.582633
v 0.754232 14.507037 6.144070
v -0.679716 15.249700 0.367478
v 4.939093 15.045681 0.367478
v 3.622128 15.201967 2.317589
v 3.622128 14.351593 6.144070
v 2.188180 14.885520 4.267699
v 4.939093 14.681501 4.267699
v -2.113664 15.201967 2.317589
v -2.113664 14.330587 6.144070
v -3.420337 14.709444 4.267699
v -0.679716 14.885520 4.267699
v -2.138748 15.246815 -5.346350
v -2.113664 15.249700 -1.582633
v -3.445421 15.073624 -3.532744
v -0.679716 15.249700 -3.532744
v 3.685898 15.246815 -5.346350
v 3.622128 15.249700 -1.582633
v 2.188180 15.249700 -3.532744
v 5.002862 15.045681 -3.532744
v 4.939093 15.045681 -1.582633
v 2.188180 15.249700 -1.582633
v 2.188180 15.246815 -5.346350
v -0.679716 15.249700 -1.582633
v -3.420337 15.073624 -1.582633
v -3.545757 15.070738 -5.346350
v -0.733822 14.309581 6.144070
v -3.420337 14.221729 6.144070
v -3.420337 15.025890 2.317589
v 4.958035 14.193787 6.144070
v 2.188180 14.490232 6.144070
v 2.188180 15.201967 2.317589
v 4.939093 14.997948 2.317589
v -0.679716 15.201967 2.317589
v -0.679716 15.246815 -5.346350
v 5.257942 15.042795 -5.346350
v -3.876745 12.580147 6.678722
v 5.190871 12.491624 7.294628
v 5.601312 13.998902 -5.712183
v -3.710642 14.593506 -6.137793
v -3.894069 14.075857 -0.607578
v -0.107023 13.311966 7.351303
v 5.471148 13.857752 1.342533
v 1.471206 15.230463 -6.197914
v 0.754232 15.238639 -5.772131
v 0.754232 15.225833 1.342533
v -3.657203 14.574740 0.367478
v 1.471206 15.249700 0.367478
v -3.894069 13.864892 3.292644
v 2.905154 12.827274 7.351303
v 5.471148 13.889574 -2.557688
v -1.413413 15.230463 -6.197914
v -3.910791 14.075857 -4.410704
v -2.781858 12.946045 7.351303
v 5.523423 13.318144 5.193595
v 4.484838 15.107426 -6.197552
v 0.754232 15.249700 -2.557688
v 0.754232 14.696279 5.205885
v -1.396690 15.249700 0.367478
v 4.280610 15.147691 0.367478
v 3.622128 15.225833 1.342533
v 3.622128 14.618556 5.205885
v 1.471206 14.885520 4.267699
v 4.280610 14.783510 4.267699
v -2.113664 15.225833 1.342533
v -2.113664 14.608053 5.205885
v -3.657203 14.213508 4.267699
v -1.396690 14.885520 4.267699
v -2.142929 15.238639 -5.772131
v -2.113664 15.249700 -2.557688
v -3.669745 14.574740 -3.532744
v -1.396690 15.249700 -3.532744
v 3.696526 15.238639 -5.772131
v 3.622128 15.249700 -2.557688
v 1.471206 15.249700 -3.532744
v 4.312495 15.147691 -3.532744
v -3.894069 13.432495 5.193595
v 4.262878 12.396405 7.351303
v 5.524819 13.900625 -4.416435
v -2.829401 15.115003 -6.191822
v -3.894069 14.075857 -2.557688
v -1.540971 12.180407 7.351303
v 5.483775 13.678609 3.292644
v 2.947667 15.230463 -6.197914
v 0.754232 15.248257 -4.439547
v 0.754232 15.043743 3.292644
v -2.767001 15.161661 0.367478
v 2.905154 15.249700 0.367478
v -3.894069 14.044035 1.342533
v 1.435135 13.344339 7.351303
v 5.471148 13.889574 -0.607578
v 0.037258 15.230463 -6.197914
v -3.918552 14.131663 -5.689260
v -3.618668 12.292347 7.294628
v 5.514278 12.690907 6.678722
v 5.443327 14.535258 -6.160716
v 0.754232 15.249700 -0.607578
v 0.718162 13.922887 6.747686
v 0.037258 15.249700 0.367478
v 5.205121 14.467628 0.367478
v 3.622128 15.043743 3.292644
v 3.622128 13.593094 6.747686
v 2.905154 14.885520 4.267699
v 5.217748 14.106395 4.267699
v -2.113664 15.043743 3.292644
v -2.149734 13.420144 6.747686
v -2.767001 14.797482 4.267699
v 0.037258 14.885520 4.267699
v -2.126206 15.248257 -4.439547
v -2.113664 15.249700 -0.607578
v -2.779542 15.161661 -3.532744
v 0.037258 15.249700 -3.532744
v 3.654012 15.248257 -4.439547
v 3.622128 15.249700 -0.607578
v 2.905154 15.249700 -3.532744
v 5.237005 14.467628 -3.532744
v 4.970978 15.045681 -2.557688
v 4.939093 15.045681 -0.607578
v 4.280610 15.147691 -1.582633
v 5.205121 14.467628 -1.582633
v 2.188180 15.249700 -2.557688
v 2.188180 15.249700 -0.607578
v 1.471206 15.249700 -1.582633
v 2.905154 15.249700 -1.582633
v 2.188180 15.238639 -5.772131
v 2.188180 15.248257 -4.439547
v 1.471206 15.246815 -5.346350
v 2.937039 15.246815 -5.346350
v -0.679716 15.249700 -2.557688
v -0.679716 15.249700 -0.607578
v -1.396690 15.249700 -1.582633
v 0.037258 15.249700 -1.582633
v -3.432879 15.073624 -2.557688
v -3.420337 15.073624 -0.607578
v -3.657203 14.574740 -1.582633
v -2.767001 15.161661 -1.582633
v -3.528725 15.035140 -5.766040
v -3.495589 15.072181 -4.439547
v -3.736636 14.573298 -5.317507
v -2.842252 15.158776 -5.346350
v -0.706769 14.597550 5.205885
v -0.814980 13.454454 6.747686
v -1.423743 14.320084 6.144070
v 0.010205 14.408309 6.144070
v -3.420337 14.465587 5.205885
v -3.399125 13.396773 6.747686
v -3.657203 13.684573 6.131780
v -2.767001 14.276158 6.144070
v -3.420337 15.049757 1.342533
v -3.420337 14.867667 3.292644
v -3.657203 14.519052 2.317589
v -2.767001 15.113929 2.317589
v 4.948564 14.437644 5.205885
v 4.930831 13.450110 6.747686
v 4.290081 14.272690 6.144070
v 5.254239 13.649393 6.131780
v 2.188180 14.687876 5.205885
v 2.188180 13.920086 6.747686
v 1.471206 14.498634 6.144070
v 2.905154 14.420913 6.144070
v 2.188180 15.225833 1.342533
v 2.188180 15.043743 3.292644
v 1.471206 15.201967 2.317589
v 2.905154 15.201967 2.317589
v 4.939093 15.021814 1.342533
v 4.939093 14.839725 3.292644
v 4.280610 15.099957 2.317589
v 5.205121 14.411939 2.317589
v -0.679716 15.225833 1.342533
v -0.679716 15.043743 3.292644
v -1.396690 15.201967 2.317589
v 0.037258 15.201967 2.317589
v -0.679716 15.238639 -5.772131
v -0.679716 15.248257 -4.439547
v -1.409232 15.246815 -5.346350
v 0.037258 15.246815 -5.346350
v 5.260232 15.013592 -5.771770
v 5.130402 15.044238 -4.439547
v 4.471920 15.144805 -5.346350
v 5.418217 14.477237 -5.323237
v 5.327611 14.472432 -4.427991
v 4.392207 15.146248 -4.439547
v 4.478379 15.126116 -5.771951
v 0.037258 15.248257 -4.439547
v -1.402961 15.248257 -4.439547
v -1.411322 15.238639 -5.772131
v 0.037258 15.043743 3.292644
v -1.396690 15.043743 3.292644
v -1.396690 15.225833 1.342533
v 5.211434 14.259167 3.292644
v 4.280610 14.941734 3.292644
v 4.280610 15.123824 1.342533
v 2.905154 15.043743 3.292644
v 1.471206 15.043743 3.292644
v 1.471206 15.225833 1.342533
v 2.905154 13.756590 6.747686
v 1.453171 13.921487 6.747686
v 1.471206 14.692078 5.205885
v 5.222555 13.070509 6.713204
v 4.276479 13.521602 6.747686
v 4.285346 14.528100 5.205885
v -2.767001 14.955706 3.292644
v -3.657203 14.366280 3.292644
v -3.657203 14.546896 1.342533
v -2.774430 13.408459 6.747686
v -3.637935 12.988461 6.713204
v -3.657203 13.949040 5.199740
v -0.048409 13.688670 6.747686
v -1.482357 13.437299 6.747686
v -1.410216 14.602802 5.205885
v -2.810898 15.160219 -4.439547
v -3.703190 14.574018 -4.425126
v -3.723639 14.583402 -5.727650
v -2.767001 15.161661 -0.607578
v -3.657203 14.574740 -0.607578
v -3.663474 14.574740 -2.557688
v 0.037258 15.249700 -0.607578
v -1.396690 15.249700 -0.607578
v -1.396690 15.249700 -2.557688
v 2.921096 15.248257 -4.439547
v 1.471206 15.248257 -4.439547
v 1.471206 15.238639 -5.772131
v 2.905154 15.249700 -0.607578
v 1.471206 15.249700 -0.607578
v 1.471206 15.249700 -2.557688
v 5.205121 14.467628 -0.607578
v 4.280610 15.147691 -0.607578
v 4.296553 15.147691 -2.557688
v 5.221063 14.467628 -2.557688
v 2.905154 15.249700 -2.557688
v 2.942353 15.238639 -5.772131
v 0.037258 15.249700 -2.557688
v -2.773272 15.161661 -2.557688
v -2.835827 15.136889 -5.769085
v 0.023731 14.646914 5.205885
v -2.767001 14.536819 5.205885
v -2.767001 15.137795 1.342533
v 5.235993 13.877894 5.199740
v 2.905154 14.653216 5.205885
v 2.905154 15.225833 1.342533
v 5.205121 14.439783 1.342533
v 0.037258 15.225833 1.342533
v 0.037258 15.238639 -5.772131
v 5.430772 14.506248 -5.741977
v -2.511399 -0.138490 6.121008
v -2.853851 -0.138490 6.121500
v -2.854267 -0.138490 5.832096
v -2.511815 -0.138490 5.831603
v -2.446579 14.128724 6.057133
v -2.789032 14.128724 6.057626
v -2.789448 14.207018 5.768220
v -2.446995 14.207018 5.767727
v -2.608518 3.121852 6.362470
v -2.458290 7.034263 6.123074
v -2.316831 10.946675 6.075034
v -2.993777 3.121852 6.363024
v -2.843549 7.034263 6.123628
v -2.702091 10.946675 6.075588
v -2.994245 3.121852 6.037443
v -2.844018 7.034263 5.798047
v -2.702559 10.946675 5.750008
v -2.608986 3.121852 6.036889
v -2.458758 7.034263 5.797493
v -2.317300 10.946675 5.749454
v 4.693213 -0.138490 6.110643
v 5.035666 -0.138490 6.110150
v 5.035250 -0.138490 5.820745
v 4.692797 -0.138490 5.821238
v 4.628211 14.110650 6.046955
v 4.970663 14.110650 6.046463
v 4.970247 14.207018 5.757057
v 4.627795 14.207018 5.757550
v 4.791027 3.121852 6.351824
v 4.640111 7.034263 6.112862
v 4.498515 10.946675 6.065229
v 5.176286 3.121852 6.351270
v 5.025371 7.034263 6.112307
v 4.883774 10.946675 6.064675
v 5.175818 3.121852 6.025690
v 5.024902 7.034263 5.786726
v 4.883305 10.946675 5.739095
v 4.790559 3.121852 6.026244
v 4.639643 7.034263 5.787281
v 4.498046 10.946675 5.739649
v 5.186552 14.939268 -4.946385
v 5.186552 14.673089 -4.946385
v 5.186552 14.939268 -4.669609
v 5.186552 14.673089 -4.669609
v -3.444206 14.939268 -4.946385
v -3.444206 14.673089 -4.946385
v -3.444205 14.939268 -4.669610
v -3.444205 14.673089 -4.669610
vn 0.9330 0.3488 0.0885
vn 0.0000 0.9998 -0.0192
vn 0.0000 0.9997 0.0245
vn 0.9089 0.4168 0.0128
vn 0.0234 0.9661 0.2571
vn 0.8919 0.4444 0.0839
vn -0.1335 0.9908 0.0243
vn -0.1164 0.9547 0.2738
vn -0.0332 0.9745 0.2220
vn -0.1561 0.9871 -0.0354
vn -0.1317 0.9913 0.0004
vn 0.0000 1.0000 0.0000
vn 0.9223 0.3863 0.0075
vn 0.1478 0.9890 0.0036
vn 0.1531 0.9882 0.0000
vn 0.9084 0.4181 0.0000
vn 0.0000 1.0000 -0.0016
vn -0.9099 0.4148 0.0088
vn -0.9034 0.4289 0.0000
vn -0.1335 0.9910 0.0000
vn -0.9096 0.4131 -0.0456
vn -0.9269 0.3728 0.0426
vn -0.1258 0.9921 0.0015
vn 0.0035 0.9567 0.2911
vn -0.0028 0.5707 0.8212
vn -0.1493 0.6776 0.7201
vn -0.9001 0.4205 0.1143
vn -0.7830 0.3692 0.5006
vn -0.0291 0.5620 0.8267
vn -0.9040 0.4275 0.0113
vn -0.9030 0.4243 0.0677
vn -0.1319 0.9785 0.1588
vn 0.1394 0.9572 0.2536
vn 0.0711 0.6255 0.7769
vn 0.7640 0.4634 0.4489
vn 0.0029 0.9790 0.2040
vn 0.0049 0.7248 0.6889
vn 0.1045 0.6434 0.7583
vn 0.0000 0.9871 0.1602
vn 0.1530 0.9879 0.0242
vn 0.1512 0.9757 0.1583
vn 0.9066 0.4184 0.0556
vn 0.1492 0.9873 -0.0540
vn 0.1327 0.9911 0.0136
vn 0.9503 0.3011 0.0798
vn 0.9466 0.3010 0.1152
vn 0.9299 0.3500 0.1132
vn 0.9331 0.3508 0.0788
vn 0.1327 0.9911 0.0066
vn 0.1414 0.9899 0.0071
vn 0.1414 0.9899 0.0146
vn 0.1493 0.9884 -0.0282
vn 0.1355 0.9904 -0.0285
vn 0.1354 0.9893 -0.0543
vn 0.9061 0.4182 0.0638
vn 0.9007 0.4294 0.0656
vn 0.9012 0.4297 0.0574
vn 0.1128 0.6947 0.7104
vn 0.1636 0.5571 0.8142
vn 0.0632 0.5806 0.8117
vn 0.0049 0.7206 0.6934
vn -0.1045 0.6531 0.7500
vn 0.1130 0.6448 0.7560
vn 0.0029 0.9798 0.1998
vn 0.0086 0.9798 0.1998
vn 0.0086 0.9789 0.2040
vn 0.7299 0.4378 0.5249
vn 0.3259 0.5337 0.7803
vn 0.6502 0.5535 0.5205
vn 0.0708 0.6226 0.7793
vn 0.2073 0.5268 0.8243
vn 0.0495 0.4727 0.8799
vn 0.1389 0.9541 0.2653
vn 0.1217 0.9563 0.2659
vn 0.1221 0.9594 0.2543
vn -0.9031 0.4244 0.0653
vn -0.9013 0.4281 0.0659
vn -0.9012 0.4281 0.0683
vn -0.9039 0.4275 0.0131
vn -0.9052 0.4247 0.0130
vn -0.9053 0.4247 0.0113
vn -0.0300 0.5802 0.8139
vn -0.2110 0.6674 0.7142
vn 0.3453 0.5277 0.7761
vn -0.8063 0.3834 0.4505
vn -0.7338 0.4434 0.5147
vn -0.7105 0.4206 0.5642
vn -0.8990 0.4199 0.1242
vn -0.9063 0.4053 0.1199
vn -0.9072 0.4059 0.1103
vn -0.1345 0.6104 0.7806
vn -0.3042 0.7836 0.5417
vn -0.0124 0.7112 0.7029
vn -0.0027 0.5586 0.8295
vn -0.0203 0.4296 0.9028
vn -0.3266 0.5502 0.7685
vn 0.0035 0.9582 0.2861
vn 0.0108 0.9581 0.2861
vn 0.0108 0.9566 0.2912
vn -0.1258 0.9920 0.0041
vn -0.1293 0.9916 0.0042
vn -0.1293 0.9916 0.0016
vn -0.9277 0.3724 0.0261
vn -0.9172 0.3977 0.0258
vn -0.9166 0.3977 0.0421
vn -0.9084 0.4180 0.0094
vn -0.9263 0.3769 0.0056
vn -0.9266 0.3734 -0.0450
vn -0.9099 0.4149 0.0029
vn -0.9055 0.4243 0.0029
vn -0.9055 0.4242 0.0087
vn 0.1478 0.9890 0.0012
vn 0.1513 0.9885 0.0012
vn 0.1513 0.9885 0.0037
vn 0.9221 0.3862 0.0226
vn 0.9129 0.4075 0.0224
vn 0.9131 0.4076 0.0075
vn -0.1317 0.9913 0.0013
vn -0.1329 0.9911 0.0013
vn -0.1329 0.9911 0.0004
vn -0.1561 0.9851 -0.0716
vn -0.1345 0.9884 -0.0712
vn -0.1347 0.9903 -0.0354
vn -0.0328 0.9625 0.2694
vn -0.0963 0.9589 0.2670
vn -0.0975 0.9705 0.2206
vn -0.1169 0.9591 0.2579
vn -0.0925 0.9616 0.2585
vn -0.0921 0.9572 0.2745
vn 0.8907 0.4437 0.0989
vn 0.8800 0.4634 0.1040
vn 0.8812 0.4643 0.0889
vn 0.0236 0.9745 0.2233
vn 0.0705 0.9723 0.2228
vn 0.0699 0.9640 0.2565
vn 0.9089 0.4169 0.0111
vn 0.9100 0.4145 0.0110
vn 0.9100 0.4145 0.0127
vn 0.9382 0.3458 0.0164
vn 0.9552 0.2954 0.0167
vn 0.9512 0.2973 0.0821
vn 0.0000 -1.0000 0.0000
vn 0.0004 0.9653 0.2611
vn 0.0014 0.0057 1.0000
vn -0.9996 -0.0270 -0.0020
vn -0.0014 0.0055 -1.0000
vn 0.9996 0.0299 -0.0014
vn 0.9992 0.0402 0.0037
vn 0.9993 -0.0362 -0.0014
vn 0.9993 -0.0385 -0.0014
vn -0.0014 0.0628 -0.9980
vn -0.0014 -0.0610 -0.9981
vn -0.0014 -0.0122 -0.9999
vn -0.9991 -0.0430 0.0014
vn -0.9993 0.0385 0.0014
vn -0.9993 0.0362 0.0014
vn 0.0014 -0.0738 0.9973
vn 0.0014 0.0610 0.9981
vn 0.0014 0.0122 0.9999
vn 0.0005 0.9488 0.3159
vn 0.9996 -0.0270 -0.0057
vn -0.9996 0.0299 0.0014
vn -0.9992 0.0404 0.0078
vn -0.9993 -0.0362 0.0014
vn -0.9993 -0.0385 0.0014
vn 0.9991 -0.0430 -0.0014
vn 0.9993 0.0385 -0.0014
vn 0.9993 0.0362 -0.0014
vn -0.0000 0.0000 1.0000
vn 1.0000 0.0000 0.0000
vn 0.0000 0.0000 -1.0000
vn -1.0000 0.0000 0.0000
usemtl Material
s off
f 289//1 84//1 4//1 141//1
f 288//2 90//2 8//2 137//2
f 287//3 91//3 9//3 144//3
f 286//4 88//4 7//4 145//4
f 285//3 106//3 21//3 133//3
f 284//5 107//5 22//5 148//5
f 283//6 100//6 16//6 149//6
f 282//7 110//7 20//7 132//7
f 281//8 111//8 23//8 152//8
f 280//9 103//9 19//9 153//9
f 279//10 114//10 13//10 125//10
f 278//11 115//11 24//11 156//11
f 277//12 102//12 18//12 157//12
f 276//2 118//2 17//2 129//2
f 275//12 119//12 25//12 160//12
f 274//13 96//13 12//13 161//13
f 273//14 162//14 65//14 121//14
f 272//15 163//15 66//15 164//15
f 271//16 136//16 40//16 165//16
f 270//12 166//12 64//12 120//12
f 269//12 167//12 67//12 168//12
f 268//12 159//12 63//12 169//12
f 267//2 170//2 33//2 89//2
f 266//17 171//17 68//17 172//17
f 265//17 158//17 62//17 173//17
f 264//12 174//12 61//12 117//12
f 263//12 175//12 69//12 176//12
f 262//12 142//12 46//12 177//12
f 261//18 178//18 60//18 116//18
f 260//19 179//19 70//19 180//19
f 259//20 155//20 59//20 181//20
f 258//21 182//21 29//21 85//21
f 257//22 183//22 71//22 184//22
f 256//23 154//23 58//23 185//23
f 255//24 186//24 57//24 113//24
f 254//25 187//25 72//25 188//25
f 253//26 143//26 47//26 189//26
f 252//27 190//27 56//27 112//27
f 251//28 191//28 73//28 192//28
f 250//29 151//29 55//29 193//29
f 249//30 194//30 36//30 92//30
f 248//31 195//31 74//31 196//31
f 247//32 150//32 54//32 197//32
f 246//33 198//33 53//33 109//33
f 245//34 199//34 75//34 200//34
f 244//35 140//35 44//35 201//35
f 243//36 202//36 52//36 108//36
f 242//37 203//37 76//37 204//37
f 241//38 147//38 51//38 205//38
f 240//3 206//3 37//3 93//3
f 239//39 207//39 77//39 208//39
f 238//39 146//39 50//39 209//39
f 237//40 210//40 49//40 105//40
f 236//41 211//41 78//41 212//41
f 235//42 128//42 32//42 213//42
f 234//3 214//3 48//3 104//3
f 233//39 215//39 79//39 216//39
f 232//39 131//39 35//39 217//39
f 231//2 218//2 41//2 97//2
f 230//17 219//17 80//17 220//17
f 229//17 130//17 34//17 221//17
f 228//43 222//43 45//43 101//43
f 227//44 223//44 81//44 224//44
f 226//45 124//45 28//45 225//45
f 223//46 226//46 225//46 81//46
f 65//47 161//47 226//47 223//47
f 161//48 12//48 124//48 226//48
f 158//49 227//49 224//49 62//49
f 25//50 121//50 227//50 158//50
f 121//51 65//51 223//51 227//51
f 118//52 228//52 101//52 17//52
f 62//53 224//53 228//53 118//53
f 224//54 81//54 222//54 228//54
f 219//17 229//17 221//17 80//17
f 61//17 157//17 229//17 219//17
f 157//17 18//17 130//17 229//17
f 154//17 230//17 220//17 58//17
f 24//17 117//17 230//17 154//17
f 117//17 61//17 219//17 230//17
f 114//2 231//2 97//2 13//2
f 58//2 220//2 231//2 114//2
f 220//2 80//2 218//2 231//2
f 215//39 232//39 217//39 79//39
f 57//39 153//39 232//39 215//39
f 153//39 19//39 131//39 232//39
f 150//39 233//39 216//39 54//39
f 23//39 113//39 233//39 150//39
f 113//39 57//39 215//39 233//39
f 110//3 234//3 104//3 20//3
f 54//3 216//3 234//3 110//3
f 216//3 79//3 214//3 234//3
f 211//55 235//55 213//55 78//55
f 53//56 149//56 235//56 211//56
f 149//57 16//57 128//57 235//57
f 146//41 236//41 212//41 50//41
f 22//41 109//41 236//41 146//41
f 109//41 53//41 211//41 236//41
f 106//40 237//40 105//40 21//40
f 50//40 212//40 237//40 106//40
f 212//40 78//40 210//40 237//40
f 207//39 238//39 209//39 77//39
f 52//39 148//39 238//39 207//39
f 148//39 22//39 146//39 238//39
f 131//39 239//39 208//39 35//39
f 19//39 108//39 239//39 131//39
f 108//39 52//39 207//39 239//39
f 91//3 240//3 93//3 9//3
f 35//3 208//3 240//3 91//3
f 208//3 77//3 206//3 240//3
f 203//58 241//58 205//58 76//58
f 39//59 95//59 241//59 203//59
f 95//60 11//60 147//60 241//60
f 143//61 242//61 204//61 47//61
f 6//62 135//62 242//62 143//62
f 135//63 39//63 203//63 242//63
f 103//64 243//64 108//64 19//64
f 47//65 204//65 243//65 103//65
f 204//66 76//66 202//66 243//66
f 199//67 244//67 201//67 75//67
f 27//68 83//68 244//68 199//68
f 83//69 2//69 140//69 244//69
f 147//70 245//70 200//70 51//70
f 11//71 123//71 245//71 147//71
f 123//72 27//72 199//72 245//72
f 107//73 246//73 109//73 22//73
f 51//74 200//74 246//74 107//74
f 200//75 75//75 198//75 246//75
f 195//32 247//32 197//32 74//32
f 56//32 152//32 247//32 195//32
f 152//32 23//32 150//32 247//32
f 94//76 248//76 196//76 38//76
f 10//77 112//77 248//77 94//77
f 112//78 56//78 195//78 248//78
f 134//79 249//79 92//79 5//79
f 38//80 196//80 249//80 134//80
f 196//81 74//81 194//81 249//81
f 191//82 250//82 193//82 73//82
f 43//83 99//83 250//83 191//83
f 99//84 15//84 151//84 250//84
f 82//85 251//85 192//85 26//85
f 1//86 139//86 251//86 82//86
f 139//87 43//87 191//87 251//87
f 122//88 252//88 112//88 10//88
f 26//89 192//89 252//89 122//89
f 192//90 73//90 190//90 252//90
f 187//91 253//91 189//91 72//91
f 31//92 87//92 253//92 187//92
f 87//93 6//93 143//93 253//93
f 151//94 254//94 188//94 55//94
f 15//95 127//95 254//95 151//95
f 127//96 31//96 187//96 254//96
f 111//97 255//97 113//97 23//97
f 55//98 188//98 255//98 111//98
f 188//99 72//99 186//99 255//99
f 183//100 256//100 185//100 71//100
f 60//101 156//101 256//101 183//101
f 156//102 24//102 154//102 256//102
f 98//103 257//103 184//103 42//103
f 14//104 116//104 257//104 98//104
f 116//105 60//105 183//105 257//105
f 138//106 258//106 85//106 3//106
f 42//107 184//107 258//107 138//107
f 184//108 71//108 182//108 258//108
f 179//20 259//20 181//20 70//20
f 36//20 132//20 259//20 179//20
f 132//20 20//20 155//20 259//20
f 86//19 260//19 180//19 30//19
f 5//19 92//19 260//19 86//19
f 92//19 36//19 179//19 260//19
f 126//109 261//109 116//109 14//109
f 30//110 180//110 261//110 126//110
f 180//111 70//111 178//111 261//111
f 175//12 262//12 177//12 69//12
f 48//12 144//12 262//12 175//12
f 144//12 9//12 142//12 262//12
f 155//12 263//12 176//12 59//12
f 20//12 104//12 263//12 155//12
f 104//12 48//12 175//12 263//12
f 115//12 264//12 117//12 24//12
f 59//12 176//12 264//12 115//12
f 176//12 69//12 174//12 264//12
f 171//17 265//17 173//17 68//17
f 64//17 160//17 265//17 171//17
f 160//17 25//17 158//17 265//17
f 130//17 266//17 172//17 34//17
f 18//17 120//17 266//17 130//17
f 120//17 64//17 171//17 266//17
f 90//2 267//2 89//2 8//2
f 34//2 172//2 267//2 90//2
f 172//2 68//2 170//2 267//2
f 167//12 268//12 169//12 67//12
f 37//12 133//12 268//12 167//12
f 133//12 21//12 159//12 268//12
f 142//12 269//12 168//12 46//12
f 9//12 93//12 269//12 142//12
f 93//12 37//12 167//12 269//12
f 102//12 270//12 120//12 18//12
f 46//12 168//12 270//12 102//12
f 168//12 67//12 166//12 270//12
f 163//16 271//16 165//16 66//16
f 49//16 145//16 271//16 163//16
f 145//16 7//16 136//16 271//16
f 159//15 272//15 164//15 63//15
f 21//15 105//15 272//15 159//15
f 105//15 49//15 163//15 272//15
f 119//112 273//112 121//112 25//112
f 63//113 164//113 273//113 119//113
f 164//114 66//114 162//114 273//114
f 162//115 274//115 161//115 65//115
f 66//116 165//116 274//116 162//116
f 165//117 40//117 96//117 274//117
f 166//12 275//12 160//12 64//12
f 67//12 169//12 275//12 166//12
f 169//12 63//12 119//12 275//12
f 170//2 276//2 129//2 33//2
f 68//2 173//2 276//2 170//2
f 173//2 62//2 118//2 276//2
f 174//12 277//12 157//12 61//12
f 69//12 177//12 277//12 174//12
f 177//12 46//12 102//12 277//12
f 178//118 278//118 156//118 60//118
f 70//119 181//119 278//119 178//119
f 181//120 59//120 115//120 278//120
f 182//121 279//121 125//121 29//121
f 71//122 185//122 279//122 182//122
f 185//123 58//123 114//123 279//123
f 186//124 280//124 153//124 57//124
f 72//125 189//125 280//125 186//125
f 189//126 47//126 103//126 280//126
f 190//127 281//127 152//127 56//127
f 73//128 193//128 281//128 190//128
f 193//129 55//129 111//129 281//129
f 194//7 282//7 132//7 36//7
f 74//7 197//7 282//7 194//7
f 197//7 54//7 110//7 282//7
f 198//130 283//130 149//130 53//130
f 75//131 201//131 283//131 198//131
f 201//132 44//132 100//132 283//132
f 202//133 284//133 148//133 52//133
f 76//134 205//134 284//134 202//134
f 205//135 51//135 107//135 284//135
f 206//3 285//3 133//3 37//3
f 77//3 209//3 285//3 206//3
f 209//3 50//3 106//3 285//3
f 210//136 286//136 145//136 49//136
f 78//137 213//137 286//137 210//137
f 213//138 32//138 88//138 286//138
f 214//3 287//3 144//3 48//3
f 79//3 217//3 287//3 214//3
f 217//3 35//3 91//3 287//3
f 218//2 288//2 137//2 41//2
f 80//2 221//2 288//2 218//2
f 221//2 34//2 90//2 288//2
f 222//139 289//139 141//139 45//139
f 81//140 225//140 289//140 222//140
f 225//141 28//141 84//141 289//141
f 290//142 291//142 292//142 293//142
f 294//143 297//143 296//143 295//143
f 300//144 294//144 295//144 303//144
f 303//145 295//145 296//145 306//145
f 306//146 296//146 297//146 309//146
f 298//147 290//147 293//147 307//147
f 294//148 300//148 309//148 297//148
f 300//149 299//149 308//149 309//149
f 299//150 298//150 307//150 308//150
f 292//151 304//151 307//151 293//151
f 304//152 305//152 308//152 307//152
f 305//153 306//153 309//153 308//153
f 291//154 301//154 304//154 292//154
f 301//155 302//155 305//155 304//155
f 302//156 303//156 306//156 305//156
f 290//157 298//157 301//157 291//157
f 298//158 299//158 302//158 301//158
f 299//159 300//159 303//159 302//159
f 310//142 313//142 312//142 311//142
f 314//160 315//160 316//160 317//160
f 320//144 323//144 315//144 314//144
f 323//161 326//161 316//161 315//161
f 326//146 329//146 317//146 316//146
f 318//162 327//162 313//162 310//162
f 314//163 317//163 329//163 320//163
f 320//164 329//164 328//164 319//164
f 319//165 328//165 327//165 318//165
f 312//151 313//151 327//151 324//151
f 324//152 327//152 328//152 325//152
f 325//153 328//153 329//153 326//153
f 311//166 312//166 324//166 321//166
f 321//167 324//167 325//167 322//167
f 322//168 325//168 326//168 323//168
f 310//157 311//157 321//157 318//157
f 318//158 321//158 322//158 319//158
f 319//159 322//159 323//159 320//159
f 330//12 334//12 336//12 332//12
f 335//142 331//142 333//142 337//142
f 333//169 332//169 336//169 337//169
f 331//170 330//170 332//170 333//170
f 335//171 334//171 330//171 331//171
f 337//172 336//172 334//172 335//172
