# Blender v2.79 (sub 0) OBJ File: 'Espinhos.blend'
# www.blender.org
mtllib Espinhos.mtl
o pCylinder6
v 0.013573 3.910860 0.053230
v 0.004674 3.910860 0.074716
v 0.056544 3.910860 0.096201
v 0.065444 3.910860 0.074716
v 0.035059 3.910860 0.044332
v 0.056544 3.910860 0.053230
v 0.013573 3.910860 0.096201
v 0.035059 3.910860 0.105102
v -0.118110 2.820536 0.004160
v -0.170114 2.820536 0.129712
v -0.097690 3.165325 0.074715
v -0.059316 3.165325 -0.017927
v 0.132993 2.820536 0.255266
v 0.184999 2.820536 0.129712
v 0.164344 3.165325 0.074715
v 0.125970 3.165325 0.167361
v 0.007442 2.820536 -0.047844
v 0.033327 3.165325 -0.056300
v 0.132993 2.820536 0.004160
v 0.125970 3.165325 -0.017927
v -0.118110 2.820536 0.255266
v -0.059316 3.165325 0.167361
v 0.007442 2.820536 0.307270
v 0.033327 3.165325 0.205734
v 0.037881 1.235006 -0.294739
v 0.363970 1.235006 -0.159668
v 0.037881 1.235006 0.627581
v -0.288210 1.235006 0.492515
v -0.288210 1.235006 -0.159668
v -0.423278 1.235006 0.166419
v 0.499039 1.235006 0.166419
v 0.363970 1.235006 0.492515
v -0.151321 2.543113 -0.029050
v -0.217081 2.543113 0.129711
v -0.151321 2.543113 0.288477
v 0.007442 2.543113 0.354237
v 0.166204 2.543113 0.288477
v 0.231965 2.543113 0.129711
v 0.166204 2.543113 -0.029050
v 0.007442 2.543113 -0.094811
v -0.278704 1.694915 -0.126464
v -0.385762 1.694915 0.131999
v -0.318971 2.007644 0.132001
v -0.225352 2.007644 -0.094018
v -0.278704 1.694915 0.390471
v -0.225352 2.007644 0.358025
v -0.020237 1.694915 0.497528
v 0.000667 2.007644 0.451642
v 0.238228 1.694915 0.390471
v 0.226687 2.007644 0.358025
v 0.345288 1.694915 0.131999
v 0.320307 2.007644 0.132001
v 0.238228 1.694915 -0.126464
v 0.226687 2.007644 -0.094018
v -0.020237 1.694915 -0.233524
v 0.000667 2.007644 -0.187637
vt 0.328634 0.768750
vt 0.328634 0.762610
vt 0.346647 0.762611
vt 0.346647 0.768750
vt 0.333910 0.773091
vt 0.341371 0.773091
vt 0.333910 0.758269
vt 0.341372 0.758269
vt 0.695245 0.984160
vt 0.582002 0.984159
vt 0.582003 0.759201
vt 0.695246 0.759200
vt 0.775321 0.918271
vt 0.775321 0.825091
vt 0.501928 0.918271
vt 0.501927 0.825088
vt 0.905291 0.451275
vt 0.935518 0.444727
vt 0.938618 0.538513
vt 0.916314 0.543345
vt 0.239955 0.442663
vt 0.271255 0.443766
vt 0.287057 0.535175
vt 0.263961 0.534361
vt 0.742446 0.304780
vt 0.698849 0.304329
vt 0.720371 0.214048
vt 0.752541 0.214381
vt 0.456333 0.443535
vt 0.499592 0.439049
vt 0.520652 0.527793
vt 0.488732 0.531103
vt 0.773319 0.302214
vt 0.775321 0.212487
vt 0.978934 0.441423
vt 0.970655 0.536075
vt 0.166959 0.455482
vt 0.196755 0.447516
vt 0.232085 0.537942
vt 0.210099 0.543820
vt 0.883257 0.379635
vt 0.921479 0.371354
vt 0.976380 0.367176
vt 0.141182 0.384808
vt 0.178859 0.374734
vt 0.233487 0.368597
vt 0.273066 0.369992
vt 0.439352 0.370607
vt 0.494053 0.364934
vt 0.533355 0.364985
vt 0.530673 0.439089
vt 0.747080 0.378902
vt 0.691950 0.378331
vt 0.813823 0.159631
vt 0.876048 0.146151
vt 0.893629 0.229293
vt 0.839215 0.241081
vt 0.965427 0.139349
vt 0.971789 0.223345
vt 0.054798 0.170031
vt 0.116137 0.153631
vt 0.141477 0.234397
vt 0.087840 0.248738
vt 0.205071 0.143641
vt 0.219247 0.225661
vt 0.328634 0.161429
vt 0.390594 0.148286
vt 0.406198 0.229985
vt 0.352016 0.241478
vt 0.479648 0.139051
vt 0.484073 0.221910
vt 0.543632 0.139134
vt 0.540025 0.221982
vt 0.752440 0.605614
vt 0.662688 0.604685
vt 0.675795 0.521276
vt 0.754280 0.522088
vt 0.662086 0.726347
vt 0.582134 0.718023
vt 0.599315 0.598087
vt 0.867986 0.024422
vt 0.980749 0.015840
vt 0.019251 0.049135
vt 0.096637 0.028445
vt 0.208839 0.015840
vt 0.290133 0.018706
vt 0.269506 0.145912
vt 0.342783 0.027491
vt 0.455137 0.015840
vt 0.535862 0.015945
vt 0.775321 0.727520
vt 0.275594 0.227647
vt 0.736272 0.015840
vt 0.743733 0.015917
vt 0.543586 0.527823
vt 0.543632 0.725828
vt 0.538314 0.725821
vt 0.530911 0.726589
vt 0.290132 0.732038
vt 0.284776 0.731849
vt 0.277383 0.732679
vt 0.272284 0.734043
vt 0.980749 0.734383
vt 0.973320 0.734948
vt 0.968147 0.736069
vn 0.0000 1.0000 0.0000
vn 0.0000 -1.0000 -0.0000
vn -0.9143 0.1433 -0.3787
vn -0.9141 0.1448 -0.3786
vn -0.9161 0.1291 -0.3795
vn -0.9162 0.1284 -0.3795
vn 0.9151 0.1378 0.3790
vn 0.9155 0.1347 0.3792
vn 0.9173 0.1190 0.3800
vn 0.9174 0.1184 0.3800
vn -0.3814 0.0823 -0.9207
vn -0.3811 0.0897 -0.9202
vn -0.3819 0.0644 -0.9220
vn -0.3817 0.0700 -0.9216
vn 0.9206 0.0842 -0.3813
vn 0.9211 0.0769 -0.3816
vn 0.9221 0.0626 -0.3819
vn 0.9224 0.0573 -0.3821
vn 0.3820 0.0590 -0.9223
vn 0.3820 0.0596 -0.9222
vn 0.3824 0.0379 -0.9232
vn 0.3824 0.0386 -0.9232
vn -0.9051 0.2006 0.3749
vn -0.9059 0.1965 0.3752
vn -0.9073 0.1885 0.3758
vn -0.9082 0.1836 0.3762
vn -0.3735 0.2182 0.9016
vn -0.3734 0.2188 0.9015
vn -0.3745 0.2062 0.9040
vn -0.3744 0.2068 0.9039
vn 0.3756 0.1914 0.9068
vn 0.3753 0.1952 0.9061
vn 0.3767 0.1765 0.9094
vn 0.3763 0.1816 0.9085
vn -0.9109 0.1672 -0.3773
vn -0.9105 0.1695 0.3771
vn -0.3773 0.1663 0.9110
vn 0.3778 0.1594 0.9121
vn 0.9130 0.1530 0.3782
vn 0.9130 0.1528 0.3782
vn 0.9133 0.1506 -0.3783
vn 0.9134 0.1505 -0.3783
vn 0.3781 0.1540 -0.9129
vn -0.3777 0.1606 -0.9119
vn -0.9194 0.0983 -0.3808
vn -0.9196 0.0961 -0.3809
vn -0.9085 0.1815 -0.3763
vn -0.9086 0.1814 -0.3763
vn -0.9153 0.1357 0.3791
vn -0.9157 0.1332 0.3793
vn -0.9083 0.1832 0.3762
vn -0.9082 0.1833 0.3762
vn -0.3756 0.1911 0.9069
vn -0.3755 0.1922 0.9067
vn -0.3774 0.1656 0.9111
vn -0.3774 0.1652 0.9112
vn 0.3720 0.2347 0.8981
vn 0.3720 0.2356 0.8978
vn 0.3790 0.1388 0.9149
vn 0.3790 0.1374 0.9151
vn 0.8963 0.2427 0.3712
vn 0.8971 0.2391 0.3716
vn 0.9174 0.1179 0.3800
vn 0.9175 0.1170 0.3800
vn 0.9036 0.2082 -0.3743
vn 0.9046 0.2032 -0.3747
vn 0.9177 0.1153 -0.3801
vn 0.9176 0.1160 -0.3801
vn 0.3784 0.1495 -0.9135
vn 0.3785 0.1481 -0.9137
vn 0.3793 0.1333 -0.9156
vn 0.3792 0.1344 -0.9155
vn -0.3806 0.1031 -0.9190
vn -0.3806 0.1036 -0.9189
vn -0.3777 0.1612 -0.9118
vn -0.3777 0.1609 -0.9118
vn -0.9229 0.0467 -0.3823
vn -0.9189 0.1034 0.3806
vn -0.3743 0.2082 0.9036
vn 0.3656 0.2958 0.8826
vn 0.8754 0.3198 0.3626
vn 0.8896 0.2698 -0.3685
vn 0.3772 0.1689 -0.9106
vn -0.3816 0.0744 -0.9213
vn -0.3797 0.1246 -0.9167
vn 0.3798 0.1229 -0.9169
vn 0.9170 0.1216 -0.3798
vn 0.9170 0.1216 0.3798
vn 0.3798 0.1229 0.9169
vn -0.3797 0.1246 0.9167
vn -0.9165 0.1258 0.3796
vn -0.9165 0.1258 -0.3796
usemtl Material.001
s off
f 1/1/1 2/2/1 3/3/1 4/4/1
f 5/5/1 1/1/1 4/4/1 6/6/1
f 2/2/1 7/7/1 8/8/1 3/3/1
f 25/9/2 26/10/2 27/11/2 28/12/2
f 29/13/2 25/9/2 28/12/2 30/14/2
f 26/10/2 31/15/2 32/16/2 27/11/2
s 1
f 9/17/3 10/18/4 11/19/5 12/20/6
f 13/21/7 14/22/8 15/23/9 16/24/10
f 17/25/11 9/26/12 12/27/13 18/28/14
f 14/29/15 19/30/16 20/31/17 15/32/18
f 19/33/19 17/25/20 18/28/21 20/34/22
f 10/18/23 21/35/24 22/36/25 11/19/26
f 21/37/27 23/38/28 24/39/29 22/40/30
f 23/38/31 13/21/32 16/24/33 24/39/34
f 33/41/35 34/42/35 10/18/4 9/17/3
f 34/42/36 35/43/36 21/35/24 10/18/23
f 35/44/37 36/45/37 23/38/28 21/37/27
f 36/45/38 37/46/38 13/21/32 23/38/31
f 37/46/39 38/47/40 14/22/8 13/21/7
f 38/48/41 39/49/42 19/30/16 14/29/15
f 39/49/43 40/50/43 17/51/20 19/30/19
f 40/52/44 33/53/44 9/26/12 17/25/11
f 41/54/45 42/55/46 43/56/47 44/57/48
f 42/55/49 45/58/50 46/59/51 43/56/52
f 45/60/53 47/61/54 48/62/55 46/63/56
f 47/61/57 49/64/58 50/65/59 48/62/60
f 49/66/61 51/67/62 52/68/63 50/69/64
f 51/67/65 53/70/66 54/71/67 52/68/68
f 53/70/69 55/72/70 56/73/71 54/71/72
f 55/74/73 41/75/74 44/76/75 56/77/76
f 29/78/77 30/79/77 42/80/46 41/75/45
f 30/81/78 28/82/78 45/58/50 42/55/49
f 28/83/79 27/84/79 47/61/54 45/60/53
f 27/84/80 32/85/80 49/64/58 47/61/57
f 32/85/81 31/86/81 51/87/62 49/64/61
f 31/88/82 26/89/82 53/70/66 51/67/65
f 26/89/83 25/90/83 55/72/70 53/70/69
f 25/91/84 29/78/84 41/75/74 55/74/73
f 56/77/76 44/76/75 33/53/44 40/52/44
f 54/71/72 56/73/71 40/50/43 39/49/43
f 52/68/68 54/71/67 39/49/42 38/48/41
f 50/65/64 52/92/63 38/47/40 37/46/39
f 48/62/60 50/65/59 37/46/38 36/45/38
f 46/63/56 48/62/55 36/45/37 35/44/37
f 43/56/52 46/59/51 35/43/36 34/42/36
f 44/57/48 43/56/47 34/42/35 33/41/35
f 18/28/14 12/27/13 1/93/85 5/94/85
f 20/31/22 18/95/21 5/96/86 6/97/86
f 15/32/18 20/31/17 6/97/87 4/98/87
f 16/24/10 15/23/9 4/99/88 3/100/88
f 24/39/34 16/24/33 3/100/89 8/101/89
f 22/40/30 24/39/29 8/101/90 7/102/90
f 11/19/26 22/36/25 7/103/91 2/104/91
f 12/20/6 11/19/5 2/104/92 1/105/92
