# This file uses centimeters as units for non-parametric coordinates.

mtllib Faca.mtl
g default
v 0.184629 0.788597 -0.157169
v 0.140161 0.788597 -0.199905
v 0.148765 0.898812 -0.219830
v 0.203344 0.900318 -0.173466
v 0.076760 0.788597 -0.200390
v 0.073654 0.898812 -0.224860
v 0.031566 0.788597 -0.158344
v 0.006914 0.898812 -0.168643
v 0.031052 0.788597 -0.098393
v 0.006234 0.898812 -0.088488
v 0.075519 0.788597 -0.055657
v 0.065074 0.898812 -0.031352
v 0.138920 0.788597 -0.055170
v 0.148966 0.898812 -0.030701
v 0.184115 0.788597 -0.097219
v 0.208768 0.898812 -0.086919
v 0.110918 2.158006 -0.075158
v 0.105683 2.158006 -0.075283
v 0.100719 2.158006 -0.038095
v 0.114688 2.158006 -0.037970
v 0.071553 1.060505 -0.267590
v 0.006914 1.060505 -0.168643
v 0.006234 1.060505 -0.088488
v 0.070105 1.060505 0.011095
v 0.209447 1.060505 -0.167072
v 0.145576 1.060505 -0.266655
v 0.144127 1.060505 0.012031
v 0.208768 1.060505 -0.086919
v 0.086823 0.379015 -0.177394
v 0.129697 0.379015 -0.177062
v 0.128858 0.379015 -0.078169
v 0.085984 0.379015 -0.078501
v 0.056261 0.379015 -0.148664
v 0.055914 0.379015 -0.107701
v 0.159767 0.379015 -0.147862
v 0.159419 0.379015 -0.106899
v 0.224036 0.944499 -0.047381
v 0.224818 0.944499 -0.205092
v 0.224818 1.014819 -0.205092
v 0.224036 1.014819 -0.047381
v 0.143693 0.944678 0.035619
v 0.143693 1.014639 0.035619
v 0.070557 0.944678 0.035617
v 0.070557 1.014639 0.035617
v -0.009138 0.944499 -0.050469
v -0.009138 1.014819 -0.050469
v -0.008355 0.944499 -0.208181
v -0.008355 1.014819 -0.208181
v 0.071988 0.944678 -0.291192
v 0.071988 1.014639 -0.291192
v 0.145123 0.944678 -0.291673
v 0.145123 1.014639 -0.291673
v 0.116332 1.866951 -0.301000
v 0.100477 1.866951 -0.301935
v 0.102542 1.982406 -0.267590
v 0.114184 1.982406 -0.266655
v 0.086274 1.792501 -0.099507
v 0.093770 1.923413 -0.086481
v 0.128579 1.792501 -0.098888
v 0.121371 1.923413 -0.085971
v 0.121027 1.332172 -0.344592
v 0.095963 1.332172 -0.345528
v 0.096669 1.478411 -0.366113
v 0.120292 1.478411 -0.365178
v 0.071879 1.346463 -0.076568
v 0.075707 1.535388 -0.099507
v 0.142421 1.346463 -0.075948
v 0.138741 1.535388 -0.098888
v 0.111982 2.100788 -0.185525
v 0.117419 2.050326 -0.055899
v 0.097879 2.050326 -0.056156
v 0.104660 2.100788 -0.185913
v 0.184629 0.711914 -0.157169
v 0.140161 0.711914 -0.199905
v 0.076760 0.711914 -0.200390
v 0.031566 0.711914 -0.158344
v 0.031052 0.711914 -0.098393
v 0.075519 0.711914 -0.055657
v 0.138920 0.711914 -0.055172
v 0.184115 0.711914 -0.097219
v 0.184629 0.579656 -0.157169
v 0.140161 0.579656 -0.199905
v 0.076760 0.579656 -0.200390
v 0.031566 0.579656 -0.158344
v 0.031052 0.579656 -0.098393
v 0.075519 0.579656 -0.055657
v 0.138920 0.579656 -0.055172
v 0.184115 0.579656 -0.097219
v 0.209447 0.447397 -0.167073
v 0.150608 0.447397 -0.224211
v 0.066715 0.447397 -0.224860
v 0.006914 0.447397 -0.168644
v 0.006234 0.447397 -0.088489
v 0.065074 0.447397 -0.031353
v 0.148966 0.447397 -0.030702
v 0.208768 0.447397 -0.086920
v 0.119083 1.719005 -0.344592
v 0.135640 1.694598 -0.098888
v 0.078931 1.694598 -0.099507
v 0.097831 1.719005 -0.345528
vt 0.572376 0.815966
vt 0.574969 0.815924
vt 0.577225 0.836732
vt 0.570305 0.836727
vt 0.524711 0.852502
vt 0.492945 0.797055
vt 0.492814 0.752261
vt 0.524711 0.696763
vt 0.415323 0.752261
vt 0.447220 0.696763
vt 0.447220 0.852503
vt 0.415453 0.797054
vt 0.702007 0.868220
vt 0.723228 0.867351
vt 0.724916 0.890807
vt 0.703695 0.891675
vt 0.687496 0.875704
vt 0.688195 0.885420
vt 0.738728 0.873607
vt 0.739427 0.883323
vt 0.849621 0.344162
vt 0.931358 0.344162
vt 0.931346 0.383934
vt 0.849608 0.383934
vt 0.807573 0.344764
vt 0.807561 0.384333
vt 0.098342 0.648035
vt 0.062114 0.648151
vt 0.062159 0.611332
vt 0.098387 0.611216
vt 0.850954 0.526009
vt 0.807573 0.525260
vt 0.807561 0.485694
vt 0.850941 0.486239
vt 0.932699 0.526014
vt 0.932686 0.486244
vt 0.976960 0.525271
vt 0.976948 0.485704
vt 0.720689 0.549953
vt 0.684512 0.551683
vt 0.683556 0.515829
vt 0.719733 0.514099
vt 0.977203 0.344766
vt 0.977190 0.384335
vt 0.870308 0.318420
vt 0.915234 0.319308
vt 0.911817 0.409868
vt 0.870279 0.409870
vt 0.059857 0.685973
vt 0.030561 0.697662
vt 0.022797 0.665490
vt 0.819773 0.410272
vt 0.101418 0.685974
vt 0.062110 0.592060
vt 0.098783 0.592135
vt 0.130896 0.697663
vt 0.138320 0.665755
vt 0.820254 0.459759
vt 0.870874 0.460280
vt 0.912453 0.551726
vt 0.870903 0.551726
vt 0.912424 0.460280
vt 0.687374 0.590872
vt 0.655546 0.605670
vt 0.646526 0.573223
vt 0.964701 0.459766
vt 0.724646 0.590405
vt 0.683215 0.497926
vt 0.719862 0.496512
vt 0.752617 0.599415
vt 0.761966 0.568803
vt 0.964208 0.410272
vt 0.690113 0.822370
vt 0.731637 0.820670
vt 0.059568 0.923539
vt 0.101129 0.923540
vt 0.091001 0.969283
vt 0.069761 0.969283
vt 0.661719 0.837015
vt 0.130607 0.935229
vt 0.106066 0.975256
vt 0.870985 0.807025
vt 0.912535 0.807025
vt 0.902956 0.845300
vt 0.881722 0.845300
vt 0.761966 0.832912
vt 0.911926 0.063108
vt 0.870389 0.063110
vt 0.881355 0.024745
vt 0.902583 0.024744
vt 0.030271 0.935228
vt 0.054789 0.975256
vt 0.745231 0.660947
vt 0.722320 0.651801
vt 0.690938 0.653087
vt 0.669470 0.664050
vt 0.907517 0.613859
vt 0.876440 0.613860
vt 0.118590 0.757748
vt 0.096314 0.749006
vt 0.064905 0.749007
vt 0.042762 0.757750
vt 0.875965 0.256239
vt 0.907033 0.256238
vt 0.693634 0.075726
vt 0.685769 0.075855
vt 0.685942 0.024779
vt 0.691723 0.024744
vt 0.226262 0.488530
vt 0.329518 0.441234
vt 0.339241 0.514932
vt 0.246740 0.552910
vt 0.091885 0.229743
vt 0.070925 0.229682
vt 0.074504 0.158113
vt 0.088180 0.158174
vt 0.560814 0.230760
vt 0.457796 0.183429
vt 0.478315 0.119065
vt 0.570547 0.157079
vt 0.702343 0.339359
vt 0.689921 0.339691
vt 0.687833 0.259851
vt 0.699542 0.259550
vt 0.191128 0.187456
vt 0.331074 0.188529
vt 0.323604 0.295879
vt 0.183915 0.270603
vt 0.098596 0.459725
vt 0.063649 0.459710
vt 0.065726 0.365010
vt 0.096955 0.365037
vt 0.562192 0.483447
vt 0.422495 0.484483
vt 0.415323 0.401327
vt 0.554787 0.376094
vt 0.523128 0.054247
vt 0.589106 0.086119
vt 0.076369 0.085114
vt 0.086049 0.085135
vt 0.357877 0.585905
vt 0.291790 0.617749
vt 0.571453 0.697224
vt 0.577225 0.696763
vt 0.575966 0.750293
vt 0.572337 0.750470
vt 0.907047 0.212868
vt 0.929737 0.213148
vt 0.929724 0.256518
vt 0.723368 0.691100
vt 0.691987 0.692386
vt 0.930020 0.656867
vt 0.907531 0.657228
vt 0.930006 0.613498
vt 0.876454 0.657228
vt 0.854994 0.656867
vt 0.854980 0.613499
vt 0.096265 0.789362
vt 0.064856 0.789363
vt 0.854732 0.213151
vt 0.875979 0.212869
vt 0.854718 0.256521
vt 0.907070 0.138066
vt 0.929761 0.138346
vt 0.725177 0.758881
vt 0.693795 0.760166
vt 0.930044 0.731665
vt 0.907555 0.732027
vt 0.876478 0.732027
vt 0.855018 0.731666
vt 0.096180 0.858965
vt 0.064771 0.858966
vt 0.854756 0.138349
vt 0.876003 0.138067
vt 0.942256 0.063479
vt 0.942593 0.806547
vt 0.842284 0.806547
vt 0.841973 0.063483
vt 0.225427 0.031791
vt 0.369729 0.024744
vt 0.600931 0.647276
vt 0.456646 0.640137
vt 0.431720 0.265915
vt 0.558557 0.286121
vt 0.067365 0.281216
vt 0.095459 0.281254
vt 0.327317 0.385857
vt 0.200238 0.406022
vt 0.685556 0.141402
vt 0.696091 0.141154
vt 0.581631 0.024744
vt 0.600931 0.025724
vt 0.077687 0.024744
vt 0.084607 0.024748
vt 0.369729 0.646310
vt 0.350400 0.647293
vn 0.000000 1.000000 0.000000
vn 0.000000 1.000000 0.000000
vn 0.000000 1.000000 0.000000
vn 0.000000 1.000000 0.000000
vn 0.000000 1.000000 0.000000
vn 0.000000 1.000000 0.000000
vn 0.000000 1.000000 0.000000
vn 0.000000 1.000000 0.000000
vn 0.000000 1.000000 0.000000
vn 0.000000 1.000000 0.000000
vn 0.000000 1.000000 0.000000
vn 0.000000 1.000000 0.000000
vn 0.000000 -1.000000 0.000000
vn 0.000000 -1.000000 0.000000
vn 0.000000 -1.000000 0.000000
vn 0.000000 -1.000000 0.000000
vn 0.000000 -1.000000 0.000000
vn 0.000000 -1.000000 0.000000
vn 0.000000 -1.000000 0.000000
vn 0.000000 -1.000000 0.000000
vn 0.000000 -1.000000 0.000000
vn 0.000000 -1.000000 0.000000
vn 0.000000 -1.000000 0.000000
vn 0.000000 -1.000000 0.000000
vn 0.999988 0.000000 0.004919
vn 0.999988 0.000000 0.004919
vn 0.999988 0.000000 0.004919
vn 0.999988 0.000000 0.004919
vn 0.718483 0.000000 0.695544
vn 0.718483 0.000000 0.695544
vn 0.718483 0.000000 0.695544
vn 0.718483 0.000000 0.695544
vn 0.000000 0.000000 1.000000
vn 0.000000 0.000000 1.000000
vn 0.000000 0.000000 1.000000
vn 0.000000 0.000000 1.000000
vn -0.733822 0.000000 0.679342
vn -0.733822 0.000000 0.679342
vn -0.733822 0.000000 0.679342
vn -0.733822 0.000000 0.679342
vn -0.999988 0.000000 -0.004919
vn -0.999988 0.000000 -0.004919
vn -0.999988 0.000000 -0.004919
vn -0.999988 0.000000 -0.004919
vn -0.718582 0.000000 -0.695443
vn -0.718582 0.000000 -0.695443
vn -0.718582 0.000000 -0.695443
vn -0.718582 0.000000 -0.695443
vn -0.006592 0.000000 -0.999978
vn -0.006592 0.000000 -0.999978
vn -0.006592 0.000000 -0.999978
vn -0.006592 0.000000 -0.999978
vn 0.735752 0.000000 -0.677251
vn 0.735752 0.000000 -0.677251
vn 0.735752 0.000000 -0.677251
vn 0.735752 0.000000 -0.677251
vn 0.926071 -0.376821 -0.019957
vn 0.926071 -0.376821 -0.019957
vn 0.926071 -0.376821 -0.019957
vn 0.926071 -0.376821 -0.019957
vn 0.948064 0.318026 0.005833
vn 0.948064 0.318026 0.005833
vn 0.948064 0.318026 0.005833
vn 0.948064 0.318026 0.005833
vn 0.524004 -0.668051 0.528325
vn 0.524004 -0.668051 0.528325
vn 0.524004 -0.668051 0.528325
vn 0.524004 -0.668051 0.528325
vn 0.683129 0.486326 0.544813
vn 0.683129 0.486326 0.544813
vn 0.683129 0.486326 0.544813
vn 0.683129 0.486326 0.544813
vn -0.002380 -0.823747 0.566953
vn -0.002380 -0.823747 0.566953
vn -0.002380 -0.823747 0.566953
vn -0.002380 -0.823747 0.566953
vn -0.005631 0.464463 0.885575
vn -0.005631 0.464463 0.885575
vn -0.005631 0.464463 0.885575
vn -0.005631 0.464463 0.885575
vn -0.540419 -0.658680 0.523534
vn -0.540419 -0.658680 0.523534
vn -0.540419 -0.658680 0.523534
vn -0.540419 -0.658680 0.523534
vn -0.693800 0.479920 0.536953
vn -0.693800 0.479920 0.536953
vn -0.693800 0.479920 0.536953
vn -0.693800 0.479920 0.536953
vn -0.948064 -0.318026 -0.005833
vn -0.948064 -0.318026 -0.005833
vn -0.948064 -0.318026 -0.005833
vn -0.948064 -0.318026 -0.005833
vn -0.948064 0.318026 -0.005833
vn -0.948064 0.318026 -0.005833
vn -0.948064 0.318026 -0.005833
vn -0.948064 0.318026 -0.005833
vn -0.493567 -0.695384 -0.522334
vn -0.493567 -0.695384 -0.522334
vn -0.493567 -0.695384 -0.522334
vn -0.493567 -0.695384 -0.522334
vn -0.683167 0.486354 -0.544741
vn -0.683167 0.486354 -0.544741
vn -0.683167 0.486354 -0.544741
vn -0.683167 0.486354 -0.544741
vn 0.016948 -0.832703 -0.553461
vn 0.016948 -0.832703 -0.553461
vn 0.016948 -0.832703 -0.553461
vn 0.016948 -0.832703 -0.553461
vn 0.002768 0.468357 -0.883535
vn 0.002768 0.468357 -0.883535
vn 0.002768 0.468357 -0.883535
vn 0.002768 0.468357 -0.883535
vn 0.513165 -0.689270 -0.511437
vn 0.513165 -0.689270 -0.511437
vn 0.513165 -0.689270 -0.511437
vn 0.513165 -0.689270 -0.511437
vn 0.693703 0.481768 -0.535421
vn 0.693703 0.481768 -0.535421
vn 0.693703 0.481768 -0.535421
vn 0.693703 0.481768 -0.535421
vn 0.006391 -0.568945 -0.822351
vn 0.006391 -0.568945 -0.822351
vn 0.006391 -0.568945 -0.822351
vn 0.006391 -0.568945 -0.822351
vn -0.006391 -0.568945 0.822351
vn -0.006391 -0.568945 0.822351
vn -0.006391 -0.568945 0.822351
vn -0.006391 -0.568945 0.822351
vn -0.559215 -0.577367 -0.594916
vn -0.559215 -0.577367 -0.594916
vn -0.559215 -0.577367 -0.594916
vn -0.559215 -0.577367 -0.594916
vn -0.568692 -0.577653 0.585582
vn -0.568692 -0.577653 0.585582
vn -0.568692 -0.577653 0.585582
vn -0.568692 -0.577653 0.585582
vn -0.809932 -0.586483 -0.006895
vn -0.809932 -0.586483 -0.006895
vn -0.809932 -0.586483 -0.006895
vn -0.809932 -0.586483 -0.006895
vn 0.568692 -0.577653 -0.585582
vn 0.568692 -0.577653 -0.585582
vn 0.568692 -0.577653 -0.585582
vn 0.568692 -0.577653 -0.585582
vn 0.809932 -0.586483 0.006895
vn 0.809932 -0.586483 0.006895
vn 0.809932 -0.586483 0.006895
vn 0.809932 -0.586483 0.006895
vn 0.559215 -0.577367 0.594916
vn 0.559215 -0.577367 0.594916
vn 0.559215 -0.577367 0.594916
vn 0.559215 -0.577367 0.594916
vn 0.674118 -0.123493 -0.728227
vn 0.673741 -0.125446 -0.728242
vn 0.656993 -0.199543 -0.727010
vn 0.656993 -0.199543 -0.727010
vn 0.027419 -0.124719 -0.991813
vn 0.027229 -0.123520 -0.991968
vn 0.038978 -0.198179 -0.979391
vn 0.038978 -0.198179 -0.979391
vn -0.661516 -0.130477 -0.738493
vn -0.661786 -0.129242 -0.738469
vn -0.646742 -0.197676 -0.736647
vn -0.646742 -0.197676 -0.736647
vn -0.989819 -0.142082 -0.008469
vn -0.989819 -0.142082 -0.008469
vn -0.975684 -0.219021 -0.008353
vn -0.975684 -0.219021 -0.008353
vn -0.687098 -0.140756 0.712800
vn -0.687383 -0.140960 0.712485
vn -0.678407 -0.217451 0.701768
vn -0.678407 -0.217451 0.701768
vn -0.007642 -0.139785 0.990152
vn -0.007642 -0.139785 0.990152
vn -0.007546 -0.216038 0.976356
vn -0.007546 -0.216038 0.976356
vn 0.675463 -0.140858 0.723815
vn 0.675732 -0.140750 0.723585
vn 0.666969 -0.217389 0.712667
vn 0.666969 -0.217389 0.712667
vn 0.991732 -0.126766 -0.019975
vn 0.991536 -0.128238 -0.020289
vn 0.980663 -0.192566 -0.034892
vn 0.980663 -0.192566 -0.034892
vn 0.054540 0.283149 -0.957524
vn 0.054350 0.283152 -0.957534
vn 0.062542 0.411818 -0.909118
vn 0.062349 0.418235 -0.906196
vn -0.997373 0.049325 -0.053052
vn -0.997245 0.049849 -0.054934
vn -0.998196 0.044699 -0.040078
vn -0.998218 0.044489 -0.039765
vn -0.014141 -0.046034 0.998840
vn -0.014141 -0.046235 0.998831
vn -0.016049 -0.150639 0.988459
vn -0.016050 -0.150345 0.988503
vn 0.997783 0.047538 -0.046565
vn 0.997899 0.047012 -0.044578
vn 0.998645 0.041335 -0.031603
vn 0.998641 0.041440 -0.031603
vn 0.022064 -0.249584 -0.968102
vn 0.022064 -0.249183 -0.968205
vn 0.040228 -0.004624 -0.999180
vn 0.040323 -0.004825 -0.999175
vn -0.997814 0.019983 -0.062995
vn -0.997965 0.022824 -0.059545
vn -0.996676 0.009780 -0.080878
vn -0.996638 0.008308 -0.081511
vn -0.009934 0.230902 0.972926
vn -0.010125 0.231114 0.972874
vn -0.009650 0.069654 0.997525
vn -0.009650 0.069754 0.997518
vn 0.998445 0.025243 -0.049707
vn 0.998339 0.022192 -0.053160
vn 0.997349 0.008203 -0.072304
vn 0.997401 0.009886 -0.071366
vn 0.998641 0.041440 -0.031603
vn 0.998645 0.041335 -0.031603
vn 0.998774 0.039969 -0.029197
vn 0.998695 0.041232 -0.030140
vn -0.016050 -0.150345 0.988503
vn -0.016049 -0.150639 0.988459
vn -0.014233 -0.207203 0.978194
vn -0.014233 -0.207299 0.978174
vn -0.998218 0.044489 -0.039765
vn -0.998196 0.044699 -0.040078
vn -0.998151 0.046594 -0.039034
vn -0.998276 0.044912 -0.037779
vn 0.062349 0.418235 -0.906196
vn 0.062542 0.411818 -0.909118
vn 0.045180 0.697162 -0.715488
vn 0.044225 0.705553 -0.707276
vn 0.692959 0.000000 -0.720977
vn 0.692959 0.000000 -0.720977
vn 0.673741 -0.125446 -0.728242
vn 0.674118 -0.123493 -0.728227
vn 0.007643 0.000000 -0.999971
vn 0.007643 0.000000 -0.999971
vn 0.027229 -0.123520 -0.991968
vn 0.027419 -0.124719 -0.991813
vn -0.681108 0.000000 -0.732183
vn -0.681108 0.000000 -0.732183
vn -0.661786 -0.129242 -0.738469
vn -0.661516 -0.130477 -0.738493
vn -0.999963 0.000000 -0.008582
vn -0.999963 0.000000 -0.008582
vn -0.989819 -0.142082 -0.008469
vn -0.989819 -0.142082 -0.008469
vn -0.692959 0.000000 0.720977
vn -0.692959 0.000000 0.720977
vn -0.687383 -0.140960 0.712485
vn -0.687098 -0.140756 0.712800
vn -0.007643 0.000000 0.999971
vn -0.007643 0.000000 0.999971
vn -0.007642 -0.139785 0.990152
vn -0.007642 -0.139785 0.990152
vn 0.681159 -0.000000 0.732135
vn 0.681159 -0.000000 0.732135
vn 0.675732 -0.140750 0.723585
vn 0.675463 -0.140858 0.723815
vn 0.999963 0.000000 0.008582
vn 0.999963 0.000000 0.008582
vn 0.991536 -0.128238 -0.020289
vn 0.991732 -0.126766 -0.019975
vn 0.690566 0.101428 -0.716122
vn 0.690508 0.101536 -0.716163
vn 0.692959 0.000000 -0.720977
vn 0.692959 0.000000 -0.720977
vn 0.007644 0.100608 -0.994897
vn 0.007644 0.100608 -0.994897
vn 0.007643 0.000000 -0.999971
vn 0.007643 0.000000 -0.999971
vn -0.678836 0.101457 -0.727247
vn -0.678843 0.101355 -0.727255
vn -0.681108 0.000000 -0.732183
vn -0.681108 0.000000 -0.732183
vn -0.994706 0.102409 -0.008474
vn -0.994706 0.102409 -0.008474
vn -0.999963 0.000000 -0.008582
vn -0.999963 0.000000 -0.008582
vn -0.690464 0.101427 0.716220
vn -0.690508 0.101536 0.716163
vn -0.692959 0.000000 0.720977
vn -0.692959 0.000000 0.720977
vn -0.007644 0.100608 0.994897
vn -0.007644 0.100608 0.994897
vn -0.007643 0.000000 0.999971
vn -0.007643 0.000000 0.999971
vn 0.678836 0.101457 0.727247
vn 0.678843 0.101355 0.727255
vn 0.681159 -0.000000 0.732135
vn 0.681159 -0.000000 0.732135
vn 0.994706 0.102409 0.008474
vn 0.994706 0.102409 0.008474
vn 0.999963 0.000000 0.008582
vn 0.999963 0.000000 0.008582
vn 0.683386 0.182520 -0.706873
vn 0.683386 0.182520 -0.706873
vn 0.690508 0.101536 -0.716163
vn 0.690566 0.101428 -0.716122
vn 0.007546 0.181377 -0.983385
vn 0.007546 0.181377 -0.983385
vn 0.007644 0.100608 -0.994897
vn 0.007644 0.100608 -0.994897
vn -0.671836 0.182482 -0.717869
vn -0.671836 0.182482 -0.717869
vn -0.678843 0.101355 -0.727255
vn -0.678836 0.101457 -0.727247
vn -0.982929 0.183797 -0.008360
vn -0.982929 0.183797 -0.008360
vn -0.994706 0.102409 -0.008474
vn -0.994706 0.102409 -0.008474
vn -0.683386 0.182520 0.706873
vn -0.683386 0.182520 0.706873
vn -0.690508 0.101536 0.716163
vn -0.690464 0.101427 0.716220
vn -0.007546 0.181377 0.983385
vn -0.007546 0.181377 0.983385
vn -0.007644 0.100608 0.994897
vn -0.007644 0.100608 0.994897
vn 0.671836 0.182482 0.717869
vn 0.671836 0.182482 0.717869
vn 0.678843 0.101355 0.727255
vn 0.678836 0.101457 0.727247
vn 0.982929 0.183797 0.008360
vn 0.982929 0.183797 0.008360
vn 0.994706 0.102409 0.008474
vn 0.994706 0.102409 0.008474
vn 0.018147 -0.275699 -0.961073
vn 0.018147 -0.275699 -0.961073
vn 0.022064 -0.249183 -0.968205
vn 0.022064 -0.249584 -0.968102
vn -0.998337 0.032815 -0.047405
vn -0.998337 0.032815 -0.047405
vn -0.997965 0.022824 -0.059545
vn -0.997814 0.019983 -0.062995
vn -0.010314 0.293556 0.955886
vn -0.010314 0.293556 0.955886
vn -0.010125 0.231114 0.972874
vn -0.009934 0.230902 0.972926
vn 0.998658 0.035866 -0.037359
vn 0.998658 0.035866 -0.037359
vn 0.998339 0.022192 -0.053160
vn 0.998445 0.025243 -0.049707
vn 0.997401 0.009886 -0.071366
vn 0.997349 0.008203 -0.072304
vn 0.997622 0.025978 -0.063833
vn 0.997618 0.025873 -0.063938
vn -0.009650 0.069754 0.997518
vn -0.009650 0.069654 0.997525
vn -0.011370 0.000000 0.999935
vn -0.011370 0.000000 0.999935
vn -0.996638 0.008308 -0.081511
vn -0.996676 0.009780 -0.080878
vn -0.996955 0.027028 -0.073142
vn -0.996960 0.027134 -0.073037
vn 0.040323 -0.004825 -0.999175
vn 0.040228 -0.004624 -0.999180
vn 0.044044 0.152965 -0.987250
vn 0.044046 0.153878 -0.987108
vn 0.044046 0.153878 -0.987108
vn 0.044044 0.152965 -0.987250
vn 0.054350 0.283152 -0.957534
vn 0.054540 0.283149 -0.957524
vn -0.996960 0.027134 -0.073037
vn -0.996955 0.027028 -0.073142
vn -0.997245 0.049849 -0.054934
vn -0.997373 0.049325 -0.053052
vn -0.011370 0.000000 0.999935
vn -0.011370 0.000000 0.999935
vn -0.014141 -0.046235 0.998831
vn -0.014141 -0.046034 0.998840
vn 0.997618 0.025873 -0.063938
vn 0.997622 0.025978 -0.063833
vn 0.997899 0.047012 -0.044578
vn 0.997783 0.047538 -0.046565
vn 0.998695 0.041232 -0.030140
vn 0.998774 0.039969 -0.029197
vn 0.997818 0.053324 -0.038928
vn 0.997818 0.053324 -0.038928
vn -0.014233 -0.207299 0.978174
vn -0.014233 -0.207203 0.978194
vn -0.011273 -0.164809 0.986261
vn -0.011273 -0.164809 0.986261
vn -0.998276 0.044912 -0.037779
vn -0.998151 0.046594 -0.039034
vn -0.996694 0.063202 -0.051060
vn -0.996694 0.063202 -0.051060
vn 0.044225 0.705553 -0.707276
vn 0.045180 0.697162 -0.715488
vn 0.018842 0.887845 -0.459758
vn 0.018842 0.887845 -0.459758
s off
g Faca:Mesh
usemtl Faca:Material_002
f 17/1/1 18/2/2 19/3/3 20/4/4
f 21/5/5 22/6/6 23/7/7 24/8/8
f 25/9/9 26/10/10 27/11/11 28/12/12
f 29/13/13 30/14/14 31/15/15 32/16/16
f 33/17/17 29/13/18 32/16/19 34/18/20
f 30/14/21 35/19/22 36/20/23 31/15/24
f 37/21/25 38/22/26 39/23/27 40/24/28
f 41/25/29 37/21/30 40/24/31 42/26/32
f 43/27/33 41/28/34 42/29/35 44/30/36
f 45/31/37 43/32/38 44/33/39 46/34/40
f 47/35/41 45/31/42 46/34/43 48/36/44
f 49/37/45 47/35/46 48/36/47 50/38/48
f 51/39/49 49/40/50 50/41/51 52/42/52
f 38/22/53 51/43/54 52/44/55 39/23/56
f 16/45/57 4/46/58 38/22/59 37/21/60
f 25/47/61 28/48/62 40/24/63 39/23/64
f 14/49/65 16/50/66 37/51/67 41/28/68
f 28/48/69 27/52/70 42/26/71 40/24/72
f 12/53/73 14/49/74 41/28/75 43/27/76
f 27/54/77 24/55/78 44/30/79 42/29/80
f 10/56/81 12/53/82 43/27/83 45/57/84
f 24/58/85 23/59/86 46/34/87 44/33/88
f 8/60/89 10/61/90 45/31/91 47/35/92
f 23/59/93 22/62/94 48/36/95 46/34/96
f 6/63/97 8/64/98 47/65/99 49/40/100
f 22/62/101 21/66/102 50/38/103 48/36/104
f 3/67/105 6/63/106 49/40/107 51/39/108
f 21/68/109 26/69/110 52/42/111 50/41/112
f 4/70/113 3/67/114 51/39/115 38/71/116
f 26/72/117 25/47/118 39/23/119 52/44/120
f 91/73/121 90/74/122 30/14/123 29/13/124
f 95/75/125 94/76/126 32/77/127 31/78/128
f 92/79/129 91/73/130 29/13/131 33/17/132
f 94/76/133 93/80/134 34/81/135 32/77/136
f 93/82/137 92/83/138 33/84/139 34/85/140
f 90/74/141 89/86/142 35/19/143 30/14/144
f 89/87/145 96/88/146 36/89/147 35/90/148
f 96/91/149 95/75/150 31/78/151 36/92/152
f 1/93/153 2/94/154 3/67/155 4/70/156
f 2/94/157 5/95/158 6/63/159 3/67/160
f 5/95/161 7/96/162 8/64/163 6/63/164
f 7/97/165 9/98/166 10/61/167 8/60/168
f 9/99/169 11/100/170 12/53/171 10/56/172
f 11/100/173 13/101/174 14/49/175 12/53/176
f 13/101/177 15/102/178 16/50/179 14/49/180
f 15/103/181 1/104/182 4/46/183 16/45/184
f 53/105/185 54/106/186 55/107/187 56/108/188
f 54/109/189 57/110/190 58/111/191 55/112/192
f 57/113/193 59/114/194 60/115/195 58/116/196
f 59/117/197 53/118/198 56/119/199 60/120/200
f 61/121/201 62/122/202 63/123/203 64/124/204
f 62/125/205 65/126/206 66/127/207 63/128/208
f 65/129/209 67/130/210 68/131/211 66/132/212
f 67/133/213 61/134/214 64/135/215 68/136/216
f 60/120/217 56/119/218 69/137/219 70/138/220
f 58/116/221 60/115/222 70/139/223 71/140/224
f 55/112/225 58/111/226 71/141/227 72/142/228
f 56/143/229 55/144/230 72/145/231 69/146/232
f 73/147/233 74/148/234 2/149/235 1/104/236
f 74/150/237 75/151/238 5/95/239 2/94/240
f 75/152/241 76/153/242 7/97/243 5/154/244
f 76/153/245 77/155/246 9/98/247 7/97/248
f 77/155/249 78/156/250 11/157/251 9/98/252
f 78/158/253 79/159/254 13/101/255 11/100/256
f 79/160/257 80/161/258 15/103/259 13/162/260
f 80/161/261 73/147/262 1/104/263 15/103/264
f 81/163/265 82/164/266 74/148/267 73/147/268
f 82/165/269 83/166/270 75/151/271 74/150/272
f 83/167/273 84/168/274 76/153/275 75/152/276
f 84/168/277 85/169/278 77/155/279 76/153/280
f 85/169/281 86/170/282 78/156/283 77/155/284
f 86/171/285 87/172/286 79/159/287 78/158/288
f 87/173/289 88/174/290 80/161/291 79/160/292
f 88/174/293 81/163/294 73/147/295 80/161/296
f 89/87/297 90/175/298 82/164/299 81/163/300
f 90/74/301 91/73/302 83/166/303 82/165/304
f 91/176/305 92/83/306 84/168/307 83/167/308
f 92/83/309 93/82/310 85/169/311 84/168/312
f 93/82/313 94/177/314 86/170/315 85/169/316
f 94/76/317 95/75/318 87/172/319 86/171/320
f 95/178/321 96/88/322 88/174/323 87/173/324
f 96/88/325 89/87/326 81/163/327 88/174/328
f 26/69/329 21/68/330 62/122/331 61/121/332
f 21/179/333 24/180/334 65/126/335 62/125/336
f 24/55/337 27/54/338 67/130/339 65/129/340
f 27/181/341 26/182/342 61/134/343 67/133/344
f 68/136/345 64/135/346 97/183/347 98/184/348
f 66/132/349 68/131/350 98/185/351 99/186/352
f 63/128/353 66/127/354 99/187/355 100/188/356
f 64/124/357 63/123/358 100/189/359 97/190/360
f 97/190/361 100/189/362 54/106/363 53/105/364
f 100/188/365 99/187/366 57/110/367 54/109/368
f 99/186/369 98/185/370 59/114/371 57/113/372
f 98/184/373 97/183/374 53/118/375 59/117/376
f 70/138/377 69/137/378 17/191/379 20/192/380
f 71/140/381 70/139/382 20/193/383 19/194/384
f 72/142/385 71/141/386 19/195/387 18/196/388
f 69/146/389 72/145/390 18/2/391 17/1/392
