# Blender v2.79 (sub 0) OBJ File: ''
# www.blender.org
mtllib Pedrinha.mtl
o pCube1
v -0.273430 0.983020 -0.299994
v -0.311562 0.892857 0.005591
v 0.278339 0.890783 0.043884
v 0.295115 0.970673 -0.284460
v -0.250025 0.010628 0.040337
v -0.500043 0.119593 0.080667
v -0.459840 0.120219 -0.467483
v -0.250080 0.010475 -0.250084
v -0.500000 0.197041 0.500000
v -0.250025 0.010628 0.250025
v 0.220484 0.010628 0.173183
v 0.470459 0.119621 0.423158
v 0.500043 0.119593 0.080667
v 0.250025 0.010628 0.040337
v 0.250080 0.010475 -0.250084
v 0.462323 0.109869 -0.436302
v -0.568098 0.463722 0.567652
v 0.624455 0.485051 0.508659
v 0.139827 0.214353 -0.628677
v -0.122155 0.213671 -0.627708
v -0.177501 0.424528 -0.700368
v 0.156261 0.479307 -0.706752
v 0.608361 0.467482 0.111887
v 0.499548 0.673916 -0.494815
v -0.576463 0.642210 0.081505
v -0.524246 0.473595 -0.604361
v -0.251637 0.965720 0.252554
v 0.238796 0.876589 0.174956
vt 0.020491 0.358160
vt 0.097910 0.285221
vt 0.256833 0.273147
vt 0.340555 0.358160
vt 0.112195 0.129337
vt 0.056917 0.057903
vt 0.359384 0.092078
vt 0.278764 0.141963
vt 0.599698 0.377379
vt 0.670013 0.382461
vt 0.670013 0.687894
vt 0.572568 0.711906
vt 0.752571 0.570830
vt 0.754111 0.489906
vt 0.815900 0.478279
vt 0.837345 0.570830
vt 0.408313 0.604057
vt 0.401161 0.448857
vt 0.867023 0.981230
vt 0.710995 0.898223
vt 0.773268 0.751897
vt 0.867023 0.695328
vt 0.717588 0.378635
vt 0.819972 0.377379
vt 0.979509 0.377379
vt 0.979509 0.668490
vt 0.921841 0.562327
vt 0.928857 0.468418
vt 0.880860 0.657787
vt 0.710995 0.657787
vt 0.179565 0.018770
vt 0.266958 0.025395
vt 0.307674 0.633891
vt 0.218669 0.676396
vt 0.157853 0.500536
vt 0.253312 0.482211
vt 0.103900 0.219854
vt 0.027075 0.226888
vt 0.360179 0.252138
vt 0.270469 0.232480
vt 0.777724 0.125200
vt 0.900492 0.135918
vt 0.903006 0.295936
vt 0.735803 0.297180
vt 0.407267 0.323842
vt 0.401161 0.152743
vt 0.569984 0.147623
vt 0.506502 0.339838
vt 0.132274 0.675367
vt 0.117608 0.520190
vt 0.903006 0.029488
vt 0.780238 0.018770
vt 0.424282 0.021216
vt 0.504942 0.018770
vt 0.020491 0.432326
vt 0.128521 0.395701
vt 0.307674 0.400360
vt 0.679747 0.170798
vt 0.694822 0.265091
vt 0.694822 0.097338
vn 0.0080 -0.8609 0.5087
vn 0.0036 -0.8879 -0.4600
vn 0.0546 -0.2421 0.9687
vn 0.0162 -0.3008 -0.9536
vn 0.0889 0.5897 0.8027
vn 0.0027 0.5380 -0.8429
vn -0.3011 -0.3875 -0.8713
vn -0.0996 0.7797 -0.6181
vn 0.5282 -0.1712 -0.8317
vn 0.0054 -0.8721 -0.4893
vn -0.0000 0.9659 0.2591
vn 0.0347 0.9955 0.0884
vn 0.0342 0.9956 0.0870
vn -0.4383 -0.8983 0.0320
vn -0.4424 -0.8956 0.0469
vn -0.4229 -0.9059 -0.0208
vn 0.3962 -0.9181 0.0152
vn 0.3981 -0.9173 0.0118
vn 0.4088 -0.9126 -0.0079
vn -0.0000 -1.0000 0.0003
vn 0.0000 -1.0000 0.0005
vn 0.9679 -0.2283 -0.1052
vn 0.9679 -0.2250 -0.1123
vn 0.9748 -0.1602 -0.1552
vn -0.9848 -0.1663 -0.0511
vn -0.9839 -0.1746 -0.0380
vn -0.9840 -0.1743 -0.0376
vn 0.0774 0.9846 -0.1570
vn 0.9369 -0.3487 0.0254
vn 0.3762 -0.9254 0.0468
vn -0.0000 -1.0000 -0.0000
vn -0.4581 -0.8822 0.1087
vn -0.9838 -0.1792 -0.0109
vn 0.7820 0.6208 0.0559
vn 0.7440 0.6676 0.0288
vn 0.7726 0.6332 0.0457
vn 0.8083 0.5805 0.0982
vn -0.7774 0.6290 0.0099
vn -0.7848 0.6195 -0.0187
vn -0.8045 0.5818 -0.1194
vn -0.7380 0.6548 0.1631
usemtl Material.001
s off
f 9/1/1 10/2/1 11/3/1 12/4/1
f 8/5/2 7/6/2 16/7/2 15/8/2
f 17/9/3 9/10/3 12/11/3 18/12/3
f 19/13/4 20/14/4 21/15/4 22/16/4
f 28/17/5 27/18/5 17/9/5 18/12/5
f 26/19/6 1/20/6 4/21/6 24/22/6
f 7/23/7 26/24/7 21/15/7 20/14/7
f 26/25/8 24/26/8 22/27/8 21/28/8
f 24/29/9 16/30/9 19/13/9 22/16/9
f 16/7/10 7/6/10 20/31/10 19/32/10
s 1
f 1/33/11 2/34/12 3/35/13 4/36/11
f 5/37/14 6/38/15 7/6/16 8/5/16
f 13/39/17 14/40/18 15/8/19 16/7/19
f 14/40/20 5/37/20 8/5/21 15/8/21
f 23/41/22 13/42/23 16/43/24 24/44/24
f 7/45/25 6/46/26 25/47/27 26/48/25
f 3/35/13 2/34/12 27/49/28 28/50/28
f 12/51/29 13/42/23 23/41/22 18/52/29
f 12/4/30 11/3/30 14/40/18 13/39/17
f 10/2/31 5/37/20 14/40/20 11/3/31
f 10/2/32 9/1/32 6/38/15 5/37/14
f 25/47/27 6/46/26 9/53/33 17/54/33
f 3/35/34 28/50/35 18/55/35 23/56/36
f 4/36/37 3/35/34 23/56/36 24/57/37
f 25/47/38 2/58/39 1/59/40 26/48/40
f 17/54/41 27/60/41 2/58/39 25/47/38
