# Blender v2.79 (sub 0) OBJ File: ''
# www.blender.org
mtllib RodaPe.mtl
o initialShadingGroup_pCube1
v -6.562541 -0.082281 6.562541
v 6.562541 -0.082281 6.562541
v 6.562541 0.082279 6.562541
v -6.562541 0.082279 6.562541
v -6.562541 0.082281 -6.562541
v 6.562541 0.082281 -6.562541
v 6.562541 -0.082279 -6.562541
v -6.562541 -0.082279 -6.562541
v -6.562541 0.231052 6.562541
v 6.562541 0.231052 6.562541
v 6.220280 0.231052 6.220280
v -6.220280 0.231052 6.220280
v 6.562541 0.231054 -6.562541
v 6.220280 0.231054 -6.220280
v -6.562541 0.231054 -6.562541
v -6.220280 0.231054 -6.220280
v 6.220280 0.082279 6.220280
v -6.220280 0.082279 6.220280
v 6.220280 0.082281 -6.220280
v -6.220280 0.082281 -6.220280
v 6.220280 -0.047222 6.220280
v -6.220280 -0.047222 6.220280
v 6.220280 -0.082179 -6.220280
v -6.220280 -0.082179 -6.220280
vt 0.034987 0.997735
vt 0.034987 0.502265
vt 0.041200 0.502265
vt 0.041200 0.997735
vt 0.024243 0.997735
vt 0.024243 0.502265
vt 0.030456 0.502265
vt 0.030456 0.997735
vt 0.051348 0.997735
vt 0.051348 0.502265
vt 0.057561 0.502265
vt 0.057561 0.997735
vt 0.002265 0.997735
vt 0.002265 0.502265
vt 0.008478 0.502265
vt 0.008478 0.997735
vt 0.497811 0.497735
vt 0.002265 0.497735
vt 0.015188 0.484815
vt 0.484888 0.484815
vt 0.002265 0.002265
vt 0.015188 0.015185
vt 0.497811 0.002265
vt 0.484888 0.015185
vt 0.046817 0.502265
vt 0.046817 0.997735
vt 0.122397 0.502265
vt 0.122397 0.971894
vt 0.116780 0.971894
vt 0.116780 0.502265
vt 0.063178 0.502265
vt 0.063178 0.997735
vt 0.106632 0.971894
vt 0.106632 0.502265
vt 0.112249 0.502265
vt 0.112249 0.971894
vt 0.018626 0.997735
vt 0.018626 0.502265
vt 0.073918 0.971894
vt 0.073918 0.502265
vt 0.079535 0.502265
vt 0.079535 0.971894
vt 0.014095 0.502265
vt 0.014095 0.997735
vt 0.089683 0.502265
vt 0.089683 0.971894
vt 0.084066 0.971894
vt 0.084066 0.502265
vt 0.127286 0.502265
vt 0.127286 0.971894
vt 0.100423 0.971894
vt 0.101742 0.502265
vt 0.067709 0.971894
vt 0.067709 0.502265
vt 0.094572 0.502265
vt 0.095892 0.971894
vt 0.502341 0.497735
vt 0.502341 0.002265
vt 0.515260 0.015185
vt 0.515260 0.484815
vt 0.997735 0.002265
vt 0.984783 0.015185
vt 0.997735 0.497735
vt 0.984784 0.484815
vn 0.0000 0.0000 1.0000
vn 0.0000 0.0000 -1.0000
vn 1.0000 0.0000 0.0000
vn -1.0000 0.0000 0.0000
vn 0.0000 1.0000 0.0000
vn 0.0000 -1.0000 0.0003
vn -0.0513 -0.9987 0.0014
vn 0.0000 -0.9948 -0.1019
vn 0.0513 -0.9987 0.0014
usemtl None
s 1
f 1/1/1 2/2/1 3/3/1 4/4/1
f 5/5/2 6/6/2 7/7/2 8/8/2
f 2/9/3 7/10/3 6/11/3 3/12/3
f 8/13/4 1/14/4 4/15/4 5/16/4
f 9/17/5 10/18/5 11/19/5 12/20/5
f 10/18/5 13/21/5 14/22/5 11/19/5
f 13/21/5 15/23/5 16/24/5 14/22/5
f 15/23/5 9/17/5 12/20/5 16/24/5
f 4/4/1 3/3/1 10/25/1 9/26/1
f 17/27/2 18/28/2 12/29/2 11/30/2
f 3/12/3 6/11/3 13/31/3 10/32/3
f 19/33/4 17/34/4 11/35/4 14/36/4
f 6/6/2 5/5/2 15/37/2 13/38/2
f 20/39/1 19/40/1 14/41/1 16/42/1
f 5/16/4 4/15/4 9/43/4 15/44/4
f 18/45/3 20/46/3 16/47/3 12/48/3
f 18/28/2 17/27/2 21/49/2 22/50/2
f 17/34/4 19/33/4 23/51/4 21/52/4
f 19/40/1 20/39/1 24/53/1 23/54/1
f 20/46/3 18/45/3 22/55/3 24/56/3
f 8/57/6 7/58/6 23/59/6 24/60/6
f 7/58/7 2/61/7 21/62/7 23/59/7
f 2/61/8 1/63/8 22/64/8 21/62/8
f 1/63/9 8/57/9 24/60/9 22/64/9
