# Blender v2.79 (sub 0) OBJ File: ''
# www.blender.org
mtllib VasoQuebrado.mtl
o Vaso6:Mesh
v 1.137914 1.036830 -0.455206
v 0.584636 1.036830 -1.008486
v 0.654717 1.600731 -1.171670
v 1.307464 1.600731 -0.518924
v -0.197819 1.036830 0.880527
v 0.584636 1.036830 0.880527
v 0.286333 1.600730 1.056943
v -0.268406 1.600730 1.056943
v -0.751097 1.036830 -0.455208
v -0.751099 1.036830 0.327247
v -0.921150 1.600731 0.404197
v -0.921150 1.600731 -0.518924
v -0.197817 1.036830 -1.008486
v -0.268404 1.600731 -1.171670
v -0.293769 0.098243 -0.269910
v -0.008296 0.098243 -0.555382
v -0.293769 0.098243 0.133810
v -0.008296 0.098243 0.419284
v 0.395423 0.098243 0.419284
v 0.680897 0.098243 0.133812
v 1.137914 0.830643 0.327247
v 0.680897 0.098243 -0.269910
v 0.395423 0.098243 -0.555382
v -0.816390 2.170709 -0.473564
v -0.816392 2.170709 0.362711
v -0.444314 2.258275 0.208748
v -0.444314 2.258275 -0.319284
v -0.225056 2.170708 0.954050
v 0.242834 2.170708 0.954050
v 0.047295 2.258275 0.582124
v -0.070940 2.258275 0.582124
v -0.070938 2.258276 -0.692659
v -0.225054 2.170709 -1.064898
v 0.611219 2.170709 -1.064898
v 0.457091 2.258276 -0.692659
v 1.202556 2.170709 -0.651539
v 0.839834 2.258276 -0.616048
v -0.455543 2.300840 -0.323936
v -0.075591 2.300840 -0.703888
v 0.051948 2.300840 0.593352
v -0.075591 2.300840 0.593352
v 0.461744 2.300840 -0.703888
v -0.455543 2.300840 0.213398
v 0.689625 2.300840 -0.468856
v 0.475613 2.562403 -0.737373
v 0.723113 2.562403 -0.482727
v -0.089460 2.562403 -0.737373
v 0.431994 -0.018702 0.507572
v 0.769183 -0.018702 0.170380
v -0.382056 -0.018702 -0.306480
v -0.382056 -0.018702 0.170380
v 0.769183 -0.018702 -0.306478
v 0.431994 -0.018701 -0.643669
v -0.044867 -0.018702 0.507570
v -0.044865 -0.018701 -0.643669
v 0.454612 0.528974 0.576136
v 0.824480 0.528974 0.206268
v -0.068459 0.528974 -0.686672
v -0.438327 0.528974 -0.316804
v 0.824480 0.528974 -0.316804
v 0.454612 0.528974 -0.686670
v -0.438327 0.528974 0.206268
v -0.068461 0.528974 0.576134
v 0.614029 2.543504 -0.437543
v 0.430429 2.543504 -0.628289
v 0.430429 2.292845 -0.628289
v 0.614029 2.292845 -0.437543
v -0.044276 2.543504 -0.628292
v -0.044276 2.292845 -0.628292
v -0.121759 2.019643 -0.875478
v -0.573012 2.019643 -0.424225
v -0.622857 1.572439 -0.393238
v -0.144893 1.572439 -0.871202
v 0.967657 2.019643 -0.602201
v 0.516404 2.019643 -0.875476
v 0.531046 1.572439 -0.871200
v 1.009009 1.572439 -0.393238
v -0.573012 2.019643 0.213940
v -0.622857 1.572439 0.282702
v -0.044278 2.193770 0.517754
v 0.020633 2.193770 0.517756
v 0.154470 1.988748 0.829338
v -0.128212 1.988748 0.829335
v -0.438327 0.985959 -0.316804
v -0.068459 0.985959 -0.686672
v 0.454612 0.985959 -0.686670
v -0.438327 0.985959 0.206268
v -0.144895 1.572439 0.760664
v 0.162661 1.572439 0.760666
v 0.454612 0.985959 0.576136
v -0.068461 0.985959 0.576134
v 0.824480 0.779772 0.206268
v 0.824480 0.985959 -0.316804
v -0.379946 2.193770 -0.292621
v -0.044276 2.193770 -0.628292
v -0.044276 2.292845 -0.628292
v -0.379946 2.307301 -0.292621
v -0.379946 2.193770 0.182086
v -0.379946 2.307301 0.182086
v -0.044278 2.307301 0.517754
v 0.020633 2.307301 0.517756
v 0.430429 2.193770 -0.628289
v 0.775467 2.193770 -0.589385
vt 0.092511 0.464585
vt 0.196969 0.480636
vt 0.194708 0.553113
vt 0.071471 0.534175
vt 0.709760 0.459840
vt 0.605407 0.476744
vt 0.634022 0.400120
vt 0.708006 0.388136
vt 0.229020 0.159368
vt 0.135800 0.158365
vt 0.137541 0.086935
vt 0.247520 0.088118
vt 0.398190 0.460550
vt 0.291821 0.460550
vt 0.281599 0.387293
vt 0.407090 0.387293
vt 0.495826 0.400566
vt 0.473403 0.471801
vt 0.317970 0.586129
vt 0.372852 0.586129
vt 0.129278 0.277879
vt 0.177377 0.278397
vt 0.076578 0.278397
vt 0.033660 0.159368
vt 0.647243 0.589864
vt 0.701086 0.581143
vt 0.605785 0.596707
vt 0.529905 0.515515
vt 0.134495 0.348601
vt 0.017039 0.423002
vt 0.093113 0.340297
vt 0.188392 0.356883
vt 0.411660 0.591934
vt 0.281599 0.131579
vt 0.339896 0.041407
vt 0.372944 0.082037
vt 0.336135 0.138972
vt 0.450083 0.015744
vt 0.504650 0.045888
vt 0.456306 0.073451
vt 0.442516 0.065833
vt 0.353651 0.203286
vt 0.309341 0.233436
vt 0.400994 0.318802
vt 0.481382 0.330827
vt 0.287309 0.318802
vt 0.017039 0.088118
vt 0.026234 0.016816
vt 0.135399 0.015744
vt 0.415232 0.237305
vt 0.406871 0.287314
vt 0.174438 0.621747
vt 0.081037 0.608252
vt 0.235031 0.016816
vt 0.625200 0.328910
vt 0.687600 0.318802
vt 0.465209 0.253703
vt 0.504650 0.280841
vt 0.866635 0.870934
vt 0.871438 0.937110
vt 0.865537 0.938061
vt 0.860649 0.870720
vt 0.485723 0.645567
vt 0.485723 0.630775
vt 0.491515 0.630317
vt 0.491515 0.646273
vt 0.871438 0.823633
vt 0.865537 0.822585
vt 0.237609 0.447333
vt 0.231794 0.448303
vt 0.231048 0.383493
vt 0.236876 0.383645
vt 0.237609 0.325518
vt 0.231794 0.324343
vt 0.415180 0.238843
vt 0.458141 0.228183
vt 0.743839 0.600949
vt 0.743842 0.559958
vt 0.779591 0.557967
vt 0.779591 0.602427
vt 0.824778 0.871196
vt 0.829918 0.820576
vt 0.646163 0.604913
vt 0.597194 0.612996
vt 0.187560 0.292855
vt 0.130747 0.292243
vt 0.133308 0.334150
vt 0.196969 0.343933
vt 0.709760 0.594611
vt 0.377824 0.598829
vt 0.312999 0.598829
vt 0.084429 0.324343
vt 0.068500 0.292855
vt 0.231048 0.534623
vt 0.231048 0.483937
vt 0.243243 0.479791
vt 0.243243 0.539660
vt 0.726018 0.746735
vt 0.726018 0.686837
vt 0.882520 0.686837
vt 0.882520 0.746735
vt 0.836682 0.644484
vt 0.771857 0.644484
vt 0.771857 0.789088
vt 0.836682 0.789088
vt 0.067297 0.811841
vt 0.017039 0.765369
vt 0.138371 0.653259
vt 0.188628 0.699731
vt 0.017039 0.699672
vt 0.067297 0.653235
vt 0.188628 0.765428
vt 0.138371 0.811866
vt 0.600417 0.775458
vt 0.529905 0.775577
vt 0.554051 0.701976
vt 0.608616 0.701884
vt 0.691939 0.775577
vt 0.679440 0.701976
vt 0.450025 0.759472
vt 0.379125 0.759472
vt 0.367722 0.687581
vt 0.422588 0.687581
vt 0.867830 0.476089
vt 0.839595 0.466862
vt 0.808869 0.386262
vt 0.856889 0.401954
vt 0.743839 0.349390
vt 0.749844 0.318802
vt 0.819810 0.330528
vt 0.554119 0.644576
vt 0.608684 0.644484
vt 0.742968 0.185921
vt 0.801603 0.154177
vt 0.809015 0.211147
vt 0.747036 0.217187
vt 0.869334 0.146164
vt 0.876746 0.203134
vt 0.679508 0.644576
vt 0.364995 0.630317
vt 0.419861 0.630317
vt 0.297018 0.690787
vt 0.294291 0.633523
vt 0.867830 0.346220
vt 0.017039 0.911492
vt 0.038418 0.843354
vt 0.050943 0.852534
vt 0.032984 0.909776
vt 0.040925 0.950230
vt 0.050943 0.938577
vt 0.246482 0.571190
vt 0.246482 0.616945
vt 0.233013 0.616909
vt 0.231048 0.571148
vt 0.222707 0.699458
vt 0.224082 0.653468
vt 0.239492 0.653235
vt 0.238116 0.699225
vt 0.485723 0.677761
vt 0.491962 0.678694
vt 0.491962 0.692766
vt 0.485723 0.691833
vt 0.787298 0.984256
vt 0.731765 0.940418
vt 0.741697 0.935742
vt 0.790699 0.974497
vt 0.811109 0.282478
vt 0.816007 0.249649
vt 0.827063 0.248675
vt 0.827063 0.280148
vt 0.726018 0.873139
vt 0.736619 0.876305
vt 0.773423 0.821830
vt 0.790699 0.820576
vt 0.787292 0.830338
vt 0.778499 0.830976
vt 0.239492 0.758571
vt 0.224082 0.758804
vt 0.581578 0.202314
vt 0.602260 0.186857
vt 0.664476 0.202693
vt 0.675476 0.241930
vt 0.281599 0.815927
vt 0.287757 0.763615
vt 0.384706 0.815942
vt 0.970891 0.350624
vt 0.960893 0.318802
vt 0.976420 0.319004
vt 0.981548 0.350130
vt 0.902713 0.376806
vt 0.949901 0.359043
vt 0.960154 0.365787
vt 0.937836 0.391047
vt 0.789221 0.082047
vt 0.876746 0.071693
vt 0.967311 0.809686
vt 0.916599 0.785057
vt 0.943022 0.768089
vt 0.978296 0.804188
vt 0.974278 0.817936
vt 0.964286 0.814437
vt 0.922787 0.712326
vt 0.963925 0.719563
vt 0.935008 0.644484
vt 0.978296 0.649326
vt 0.950585 0.197346
vt 0.910825 0.106556
vt 0.956687 0.107586
vt 0.982961 0.168275
vt 0.950585 0.015744
vt 0.982961 0.046873
vt 0.901909 0.449274
vt 0.943938 0.446914
vt 0.936900 0.515977
vt 0.981548 0.516113
vt 0.777031 0.248900
vt 0.777031 0.281005
vt 0.742968 0.280780
vt 0.742968 0.248675
vt 0.949453 0.547601
vt 0.949453 0.606989
vt 0.915378 0.606999
vt 0.915378 0.547610
vt 0.603535 0.831632
vt 0.536963 0.831745
vt 0.809400 0.023465
vt 0.870946 0.015744
vt 0.689942 0.831745
vt 0.451644 0.815942
vt 0.672149 0.198666
vt 0.708890 0.224392
vt 0.863017 0.526479
vt 0.837066 0.517999
vt 0.901909 0.607003
vt 0.901909 0.547614
vt 0.678146 0.057517
vt 0.643636 0.048075
vt 0.643636 0.048075
vt 0.687033 0.030917
vt 0.637201 0.015744
vt 0.708890 0.017594
vt 0.587525 0.077525
vt 0.561769 0.055336
vt 0.570386 0.135011
vt 0.538729 0.132616
vn 0.6787 -0.2807 -0.6787
vn 0.0000 -0.2986 0.9544
vn -0.9574 -0.2887 -0.0000
vn -0.6786 -0.2813 -0.6786
vn 0.0000 -0.2780 -0.9606
vn -0.6364 -0.4358 -0.6364
vn -0.8990 -0.4380 -0.0000
vn -0.6349 -0.4402 0.6349
vn 0.0000 -0.4410 0.8975
vn 0.5581 -0.4808 0.6763
vn 0.8745 -0.4779 -0.0831
vn 0.6365 -0.4356 -0.6365
vn 0.0000 -0.4347 -0.9006
vn -0.2291 0.9734 -0.0000
vn 0.0000 0.9734 0.2292
vn -0.1619 0.9734 -0.1619
vn 0.0000 0.1841 -0.9829
vn -0.6952 0.1831 -0.6952
vn -0.6957 0.1785 0.6957
vn 0.0000 0.9734 -0.2290
vn 0.6492 0.0673 -0.7576
vn -0.9835 0.1808 -0.0000
vn 0.0000 0.1777 0.9841
vn 0.1266 0.9595 -0.2517
vn -0.1620 0.9734 0.1620
vn -0.6837 -0.2551 -0.6837
vn 0.0000 -0.2551 0.9669
vn 0.0000 -0.2551 -0.9669
vn -0.6837 -0.2551 0.6837
vn -0.9669 -0.2551 0.0000
vn 0.1881 0.9104 -0.3686
vn 0.7117 -0.1270 -0.6909
vn 0.0000 -0.1270 -0.9919
vn -0.6755 -0.2959 0.6754
vn 0.5643 0.6025 0.5643
vn -0.7981 0.6025 0.0000
vn 0.5643 0.6025 -0.5643
vn -0.0000 0.6025 0.7981
vn -0.5643 0.6025 -0.5643
vn 0.7981 0.6025 0.0000
vn -0.5643 0.6025 0.5643
vn 0.0000 0.6025 -0.7981
vn 0.0000 -1.0000 -0.0000
vn 0.0000 1.0000 0.0000
vn 0.6745 0.3001 0.6745
vn -0.0000 0.3001 0.9539
vn 0.9539 0.3001 0.0000
vn 0.0000 0.3001 -0.9539
vn -0.7071 0.0000 -0.7071
vn 0.7071 0.0000 0.7071
vn -1.0000 0.0000 0.0000
vn -0.7071 0.0000 0.7071
vn -0.0000 0.0000 1.0000
vn 1.0000 0.0000 0.0000
vn 0.7071 0.0000 -0.7071
vn 0.0000 0.0000 -1.0000
vn -0.0000 0.9853 0.1707
vn -0.1227 0.9853 0.1187
vn 0.0173 0.9998 -0.0029
vn -0.9239 0.0000 0.3827
vn -0.0852 0.9964 0.0000
vn -0.0000 0.9964 0.0852
vn 0.4961 -0.7534 -0.4316
vn 0.7621 -0.0588 -0.6448
vn 0.6745 0.3001 -0.6745
vn -0.0602 0.9964 0.0602
vn 0.3827 0.0000 0.9239
vn 0.1499 0.1371 0.9791
vn 0.5236 -0.4167 0.7431
vn -0.6745 0.3001 0.6745
vn 0.8878 -0.0648 -0.4556
vn 0.9239 -0.0000 -0.3827
vn 0.8865 0.0304 -0.4617
vn 0.7637 0.5143 -0.3903
vn 0.0956 0.9410 -0.3247
vn -0.1448 0.9435 0.2980
vn 0.1893 0.3369 0.9223
vn 0.3974 -0.0105 0.9176
vn -0.7205 0.0000 0.6935
vn -0.6048 -0.2998 0.7378
vn -0.6041 -0.3010 0.7378
vn 0.6790 -0.2792 0.6790
vn 0.6757 -0.2948 0.6757
vn 0.7068 -0.0298 0.7068
vn -0.5998 0.0095 0.8001
vn -0.5778 -0.0831 0.8119
vn -0.6221 0.1445 0.7695
vn -0.0000 -0.2792 0.9602
vn -0.0000 -0.2809 0.9597
vn -0.0000 0.0096 1.0000
vn 0.9563 -0.2924 -0.0000
vn 0.9502 -0.3117 -0.0000
vn 0.9938 -0.1108 0.0000
vn 0.0000 -0.8354 -0.5497
vn 0.0000 -0.1415 -0.9899
vn 0.0000 -0.1623 -0.9867
vn 0.0000 0.1628 -0.9867
vn -0.2779 -0.7166 0.6397
vn -0.2598 -0.7023 0.6627
vn -0.0000 -0.8175 0.5759
vn 0.4273 -0.7967 0.4273
vn 0.6697 -0.7426 0.0000
usemtl Material.001
s off
f 1/1/1 2/2/1 3/3/1 4/4/1
f 5/5/2 6/6/2 7/7/2 8/8/2
f 9/9/3 10/10/3 11/11/3 12/12/3
f 13/13/4 9/14/4 12/15/4 14/16/4
f 13/13/5 14/16/5 3/17/5 2/18/5
f 15/19/6 9/14/6 13/13/6 16/20/6
f 17/21/7 10/10/7 9/9/7 15/22/7
f 18/23/8 5/24/8 10/10/8 17/21/8
f 19/25/9 6/6/9 5/5/9 18/26/9
f 20/27/10 21/28/10 6/6/10 19/25/10
f 22/29/11 1/1/11 21/30/11 20/31/11
f 23/32/12 2/2/12 1/1/12 22/29/12
f 23/33/13 16/20/13 13/13/13 2/18/13
f 24/34/14 25/35/14 26/36/14 27/37/14
f 28/38/15 29/39/15 30/40/15 31/41/15
f 27/37/16 32/42/16 33/43/16 24/34/16
f 3/17/17 14/16/17 33/44/17 34/45/17
f 14/16/18 12/15/18 24/46/18 33/44/18
f 8/47/19 28/48/19 25/49/19 11/11/19
f 35/50/20 34/51/20 33/43/20 32/42/20
f 4/4/21 3/3/21 34/52/21 36/53/21
f 12/12/22 11/11/22 25/49/22 24/54/22
f 8/8/23 7/7/23 29/55/23 28/56/23
f 34/51/24 35/50/24 37/57/24 36/58/24
f 28/38/25 31/41/25 26/36/25 25/35/25
f 32/59/26 27/60/26 38/61/26 39/62/26
f 31/63/27 30/64/27 40/65/27 41/66/27
f 35/67/28 32/59/28 39/62/28 42/68/28
f 31/69/29 41/70/29 43/71/29 26/72/29
f 27/73/30 26/72/30 43/71/30 38/74/30
f 35/50/31 42/75/31 44/76/31 37/57/31
f 44/77/32 42/78/32 45/79/32 46/80/32
f 39/62/33 47/81/33 45/82/33 42/68/33
f 10/10/34 5/24/34 8/47/34 11/11/34
f 20/27/35 19/25/35 48/83/35 49/84/35
f 17/21/36 15/22/36 50/85/36 51/86/36
f 23/32/37 22/29/37 52/87/37 53/88/37
f 19/25/38 18/26/38 54/89/38 48/83/38
f 15/19/39 16/20/39 55/90/39 50/91/39
f 22/29/40 20/31/40 49/92/40 52/87/40
f 18/23/41 17/21/41 51/86/41 54/93/41
f 16/94/42 23/95/42 53/96/42 55/97/42
f 48/98/43 54/99/43 55/100/43 53/101/43
f 50/102/43 55/100/43 54/99/43 51/103/43
f 49/104/43 48/98/43 53/101/43 52/105/43
f 56/106/44 57/107/44 58/108/44 59/109/44
f 57/107/44 60/110/44 61/111/44 58/108/44
f 59/109/44 62/112/44 63/113/44 56/106/44
f 73/114/45 72/115/45 84/116/45 85/117/45
f 76/118/46 73/114/46 85/117/46 86/119/46
f 72/120/47 79/121/47 87/122/47 84/123/47
f 88/124/48 89/125/48 90/126/48 91/127/48
f 90/126/49 92/128/49 57/129/49 56/130/49
f 85/117/50 84/116/50 59/131/50 58/132/50
f 92/133/51 93/134/51 60/135/51 57/136/51
f 93/134/52 86/137/52 61/138/52 60/135/52
f 86/119/53 85/117/53 58/132/53 61/139/53
f 84/123/54 87/122/54 62/140/54 59/141/54
f 87/122/55 91/142/55 63/143/55 62/140/55
f 91/127/56 90/126/56 56/130/56 63/144/56
f 45/145/57 47/146/57 68/147/57 65/148/57
f 46/149/58 45/145/58 65/148/58 64/150/58
f 94/151/50 95/152/50 96/153/50 97/154/50
f 98/155/54 94/156/54 97/157/54 99/158/54
f 81/159/56 80/160/56 100/161/56 101/162/56
f 39/163/59 38/164/59 97/165/59 96/166/59
f 47/167/60 39/168/60 69/169/60 68/170/60
f 38/164/61 43/171/61 99/172/61 97/165/61
f 41/173/62 40/174/62 101/175/62 100/176/62
f 98/155/55 99/158/55 100/177/55 80/178/55
f 78/179/63 98/180/63 80/181/63 83/182/63
f 83/183/64 88/184/64 79/121/64 78/185/64
f 87/122/65 79/121/65 88/184/65 91/142/65
f 43/171/66 41/173/66 100/176/66 99/172/66
f 44/186/67 46/187/67 64/188/67 67/189/67
f 36/190/68 37/191/68 103/192/68 74/193/68
f 44/186/69 67/189/69 103/192/69 37/191/69
f 77/194/70 76/195/70 86/137/70 93/134/70
f 30/196/71 29/197/71 82/198/71 81/199/71
f 101/200/72 40/201/72 30/196/72 81/199/72
f 29/197/73 7/202/73 89/203/73 82/198/73
f 7/202/74 6/204/74 90/205/74 89/203/74
f 6/206/75 21/207/75 92/208/75 90/209/75
f 21/207/76 1/210/76 93/211/76 92/208/76
f 4/212/77 36/190/77 74/193/77 77/213/77
f 1/214/78 4/212/78 77/213/78 93/215/78
s 1
f 64/216/79 65/217/79 66/218/80 67/219/81
f 65/220/53 68/221/53 69/222/53 66/223/53
f 70/224/82 71/225/83 72/115/84 73/114/84
f 74/226/85 75/227/86 76/195/87 77/194/87
f 75/228/88 70/224/89 73/114/90 76/118/90
f 71/229/91 78/185/92 79/121/93 72/120/93
f 80/181/94 81/230/94 82/231/95 83/182/96
f 83/232/96 82/233/95 89/125/97 88/124/97
f 66/223/53 69/222/53 95/234/53 102/235/53
f 67/236/81 66/237/80 102/238/98 103/239/98
f 103/239/99 102/238/99 75/240/86 74/241/85
f 102/238/100 95/242/100 70/243/89 75/240/88
f 95/242/101 94/244/101 71/245/83 70/243/82
f 94/244/102 98/180/102 78/179/92 71/245/91
